<svg xmlns="http://www.w3.org/2000/svg" viewBox="0 0 384 512"><!--!Font Awesome Free 6.7.2 by @fontawesome - https://fontawesome.com License - https://fontawesome.com/license/free (Icons: CC BY 4.0, Fonts: SIL OFL 1.1, Code: MIT License) Copyright 2024 Fonticons, Inc.--><path d="M0 64C0 28.7 28.7 0 64 0H224V128c0 17.7 14.3 32 32 32H384V448c0 35.3-28.7 64-64 64H64c-35.3 0-64-28.7-64-64V64zm384 64H256V0L384 128zM216 408c0 13.3-10.7 24-24 24s-24-10.7-24-24V305.9l-31 31c-9.4 9.4-24.6 9.4-33.9 0s-9.4-24.6 0-33.9l72-72c9.4-9.4 24.6-9.4 33.9 0l72 72c9.4 9.4 9.4 24.6 0 33.9s-24.6 9.4-33.9 0l-31-31V408z"/></svg>
