<svg xmlns="http://www.w3.org/2000/svg" viewBox="-48.87 -23.98 104.1 34.2" data-palette="wall:#EFEADF;roof:#D9776B;wood:#C9A97C;earth:#94744F;water:#8FB0B8;flag:#4A3B32;ink:#3B2F28;halo:#F4EFE4"><!--"broken wall" — Iron Ledger settlement kit-->
  <path data-role="sil" fill="#F4EFE4" stroke="#F4EFE4" stroke-width="3" stroke-linejoin="round" d="M45.5 8.11L46.07 7.97L46.46 7.72L46.83 7.25L46.94 7.04L47.16 6.37L47.2 6.14L47.2 5.5L47.57 5.04L47.74 4.61L47.75 4.02L47.59 3.56L47.17 3.04L46.97 2.88L44.16 1.34L43.7 1.21L39.44 0.7L45.27 0.7L45.5 0.66L46.06 0.47L46.46 0.11L46.61 -0.21L46.99 -0.13L47.7 -0.26L47.97 -0.37L52.53 -3.46L52.76 -3.71L53.15 -4.46L53.23 -4.79L53.23 -9.47L53.19 -9.7L53 -10.26L52.64 -10.66L51.94 -11L51.63 -11.07L50.91 -11.07L50.91 -14.72L50.87 -14.95L50.67 -15.51L50.32 -15.91L49.61 -16.25L49.31 -16.32L47.07 -16.32L46.84 -16.28L46.28 -16.09L46.15 -15.97L45.58 -16.25L45.27 -16.32L41.89 -16.32L41.66 -16.28L41.1 -16.09L40.76 -15.83L40.66 -15.68L31.02 -15.68L30.79 -15.64L30.23 -15.45L29.83 -15.1L29.62 -14.67L20.37 -14.67L20.34 -14.96L20.14 -15.52L19.78 -15.92L19.08 -16.26L18.77 -16.33L8.04 -16.33L8.04 -17.06L8 -17.29L7.8 -17.84L7.45 -18.25L6.74 -18.59L6.44 -18.66L3.25 -18.66L3.13 -18.82L2.71 -19.24L2.38 -19.43L1.83 -19.53L1.43 -19.49L0.87 -19.3L0.47 -18.94L0.13 -18.24L0.06 -17.93L0.06 -17.25L-7.4 -17.25L-7.5 -17.55L-7.86 -17.95L-8.56 -18.29L-8.87 -18.36L-20.7 -18.36L-21.19 -18.89L-21.53 -19.07L-22.08 -19.18L-23.67 -19.18L-23.9 -19.14L-24.46 -18.95L-24.83 -18.66L-29.48 -18.66L-29.71 -18.89L-30.05 -19.07L-30.6 -19.18L-33.67 -19.16L-33.78 -19.14L-34.55 -19.14L-34.78 -19.1L-35.34 -18.91L-35.68 -18.66L-40.36 -18.66L-40.55 -18.84L-40.89 -19.03L-41.09 -19.08L-41.09 -20.38L-41.13 -20.61L-41.33 -21.17L-41.68 -21.57L-42.39 -21.91L-42.69 -21.98L-45.27 -21.98L-45.5 -21.94L-46.06 -21.75L-46.46 -21.39L-46.8 -20.69L-46.87 -20.38L-46.87 -0.9L-46.83 -0.67L-46.64 -0.11L-46.28 0.29L-45.58 0.63L-45.27 0.7L-41.32 0.7L-41.59 0.78L-42.23 1.12L-42.45 1.31L-43.69 2.9L-43.8 3.11L-43.99 3.67L-43.97 4.18L-43.67 4.84L-43.49 5.08L-41.95 6.46L-41.75 6.58L-41.21 6.81L-40.98 6.87L-37.26 7.09L-36.99 7.05L-36.35 6.84L-36.12 6.71L-34.22 5.08L-34.07 4.91L-33.77 4.4L-33.7 3.88L-33.87 3.15L-34 2.89L-35.48 0.98L-35.75 0.77L-35.91 0.7L6.69 0.7L6.69 0.96L6.84 1.4L7.21 1.86L7.56 2.1L8.24 2.26L16.29 2.26L16.52 2.23L17.08 2.03L17.48 1.67L17.7 1.21L25.02 1.21L25.25 1.17L25.81 0.98L26.12 0.7L38.94 0.7L38.24 0.92L37.99 1.06L35.75 3.01L35.6 3.19L35.31 3.71L35.23 4.16L35.32 4.75L35.47 5.08L35.8 5.46L38.14 7.37L38.37 7.49L39 7.69L39.26 7.72L42.16 7.54L42.35 7.66L42.82 7.85L43.01 7.9L45.26 8.12ZM33.67 8.16L34.36 7.85L34.6 7.67L35.1 7.1L35.22 6.9L35.44 6.35L35.44 5.82L35.14 5.12L34.97 4.87L34.34 4.3L34.14 4.17L33.59 3.94L33.36 3.88L31.26 3.75L30.97 3.79L30.29 4.05L30.05 4.2L29.41 4.82L29.28 5L29.01 5.53L28.98 6.08L29.26 6.86L29.44 7.13L30.11 7.77L30.33 7.91L30.94 8.15L31.19 8.2L33.38 8.22Z"/>
  <path data-role="wall" fill="#EFEADF" d="M8 -3.51L8.09 -3.69L8.39 -4.11L8.74 -4.37L9.3 -4.55L9.53 -4.59L10.73 -4.59L11.84 -5.48L12.14 -5.62L12.97 -5.78L13.52 -5.66L13.99 -5.31L14.16 -5.14L14.72 -4.32L16.04 -5.96L16.32 -6.17L17.11 -6.5L17.44 -6.55L18.99 -6.42L20.32 -7.3L20.59 -7.41L21.31 -7.53L21.81 -7.42L22.3 -7.1L22.47 -6.94L23.95 -5.01L24.82 -5.19L25.23 -5.19L25.6 -5.08L26.1 -4.76L26.39 -4.4L26.58 -3.84L26.62 -3.61L26.62 -0.39L26.51 0L45.27 0L45.83 -0.19L46.17 -0.9L46.17 -14.72L45.98 -15.28L45.27 -15.62L41.89 -15.62L41.33 -15.43L41.09 -15.09L40.88 -14.98L31.02 -14.98L30.46 -14.79L30.2 -14.26L30.17 -14.27L30.09 -14.06L29.91 -13.97L19.82 -13.97L19.76 -13.99L19.67 -14.18L19.67 -14.73L19.48 -15.29L18.77 -15.63L7.49 -15.63L7.43 -15.65L7.34 -15.83L7.34 -17.06L7.14 -17.61L6.44 -17.96L2.87 -17.96L2.81 -17.98L2.64 -18.32L2.22 -18.74L1.83 -18.83L1.66 -18.83L1.1 -18.64L0.76 -17.93L0.76 -16.71L0.74 -16.64L0.56 -16.55L-7.82 -16.55L-7.88 -16.58L-8.16 -17.32L-8.87 -17.66L-21.07 -17.66L-21.13 -17.68L-21.27 -17.98L-21.69 -18.39L-22.08 -18.48L-23.67 -18.48L-24.23 -18.29L-24.38 -18.09L-24.65 -17.96L-29.73 -17.96L-29.79 -17.98L-30.2 -18.39L-30.6 -18.48L-33.51 -18.48L-33.7 -18.44L-34.55 -18.44L-35.11 -18.25L-35.22 -18.1L-35.51 -17.96L-40.59 -17.96L-40.69 -17.99L-41.05 -18.35L-41.44 -18.44L-41.7 -18.46L-41.79 -18.64L-41.79 -20.38L-41.99 -20.94L-42.69 -21.28L-45.27 -21.28L-45.83 -21.09L-46.17 -20.38L-46.17 -0.9L-45.98 -0.34L-45.27 0L6.78 0ZM-36.58 6.17L-34.68 4.55L-34.38 4.04L-34.55 3.32L-36.03 1.41L-36.81 1.07L-41.25 1.39L-41.9 1.74L-43.14 3.33L-43.33 3.89L-43.03 4.55L-41.48 5.94L-40.94 6.17L-37.21 6.39Z"/>
  <path data-role="wall-shade" fill="#cbc5ba" d="M47.58 -0.95L52.14 -4.04L52.53 -4.79L52.53 -9.47L52.34 -10.03L51.63 -10.37L50.36 -10.37L50.3 -10.39L50.21 -10.58L50.21 -14.72L50.01 -15.28L49.31 -15.62L47.07 -15.62L46.65 -15.47L46.83 -14.95L46.87 -14.72L46.87 -0.82ZM45.91 7.29L46.27 6.82L46.5 6.14L46.5 5.55L46.39 5.21L46.66 5.05L47.04 4.59L47.05 4L46.63 3.49L43.95 2.01L43.62 1.9L39.15 1.37L38.45 1.59L36.21 3.54L35.92 4.05L36.01 4.64L36.24 4.92L38.58 6.83L39.21 7.03L42.19 6.82L42.49 6.91L42.62 7.01L43.08 7.2L45.33 7.42ZM34.07 7.21L34.57 6.64L34.79 6.09L34.5 5.38L33.87 4.81L33.32 4.58L31.22 4.45L30.54 4.7L29.9 5.32L29.64 5.85L29.91 6.62L30.59 7.26L31.2 7.5L33.38 7.52Z"/>
  <path data-role="roof" fill="#D9776B" d="M25.58 0.32L25.92 -0.39L25.92 -3.61L25.73 -4.17L25.23 -4.49L24.82 -4.49L23.81 -4.26L23.64 -4.28L21.92 -6.51L21.43 -6.84L20.71 -6.72L19.28 -5.77L19 -5.7L17.38 -5.86L16.59 -5.52L15.14 -3.71L15.67 -2.94L17.47 -0.95L17.61 -0.73L17.84 -0.13L17.89 0.12L17.89 0.51L25.02 0.51ZM12.51 -4.98L12.27 -4.93L11.07 -3.97L10.79 -3.87L9.52 -3.89L8.96 -3.7L8.66 -3.28L7.39 0.37L7.39 0.96L7.76 1.42L8.24 1.56L12.51 1.56Z"/>
  <path data-role="roof-shade" fill="#aa6157" d="M16.85 1.37L17.19 0.66L17.19 0.12L16.96 -0.48L15.09 -2.54L13.58 -4.74L13.1 -5.09L12.51 -4.98L12.51 1.56L16.29 1.56Z"/>
  <path data-role="ink" fill="#3B2F28" d="M45.5 8.11L46.07 7.97L46.46 7.72L46.83 7.25L46.94 7.04L47.16 6.37L47.2 6.14L47.2 5.5L47.57 5.04L47.74 4.61L47.75 4.02L47.59 3.56L47.17 3.04L46.97 2.88L44.16 1.34L43.7 1.21L39.44 0.7L45.27 0.7L45.5 0.66L46.06 0.47L46.46 0.11L46.61 -0.21L46.99 -0.13L47.7 -0.26L47.97 -0.37L52.53 -3.46L52.76 -3.71L53.15 -4.46L53.23 -4.79L53.23 -9.47L53.19 -9.7L53 -10.26L52.64 -10.66L51.94 -11L51.63 -11.07L50.91 -11.07L50.91 -14.72L50.87 -14.95L50.67 -15.51L50.32 -15.91L49.61 -16.25L49.31 -16.32L47.07 -16.32L46.84 -16.28L46.28 -16.09L46.15 -15.97L45.58 -16.25L45.27 -16.32L41.89 -16.32L41.66 -16.28L41.1 -16.09L40.76 -15.83L40.66 -15.68L31.02 -15.68L30.79 -15.64L30.23 -15.45L29.83 -15.1L29.62 -14.67L20.37 -14.67L20.34 -14.96L20.14 -15.52L19.78 -15.92L19.08 -16.26L18.77 -16.33L8.04 -16.33L8.04 -17.06L8 -17.29L7.8 -17.84L7.45 -18.25L6.74 -18.59L6.44 -18.66L3.25 -18.66L3.13 -18.82L2.71 -19.24L2.38 -19.43L1.83 -19.53L1.43 -19.49L0.87 -19.3L0.47 -18.94L0.13 -18.24L0.06 -17.93L0.06 -17.25L-7.4 -17.25L-7.5 -17.55L-7.86 -17.95L-8.56 -18.29L-8.87 -18.36L-20.7 -18.36L-21.19 -18.89L-21.53 -19.07L-22.08 -19.18L-23.67 -19.18L-23.9 -19.14L-24.46 -18.95L-24.83 -18.66L-29.48 -18.66L-29.71 -18.89L-30.05 -19.07L-30.6 -19.18L-33.67 -19.16L-33.78 -19.14L-34.55 -19.14L-34.78 -19.1L-35.34 -18.91L-35.68 -18.66L-40.36 -18.66L-40.55 -18.84L-40.89 -19.03L-41.09 -19.08L-41.09 -20.38L-41.13 -20.61L-41.33 -21.17L-41.68 -21.57L-42.39 -21.91L-42.69 -21.98L-45.27 -21.98L-45.5 -21.94L-46.06 -21.75L-46.46 -21.39L-46.8 -20.69L-46.87 -20.38L-46.87 -0.9L-46.83 -0.67L-46.64 -0.11L-46.28 0.29L-45.58 0.63L-45.27 0.7L-41.3 0.7L-41.59 0.78L-42.23 1.12L-42.45 1.31L-43.69 2.9L-43.8 3.11L-43.99 3.67L-43.97 4.18L-43.67 4.84L-43.49 5.08L-41.95 6.46L-41.75 6.58L-41.21 6.81L-40.98 6.87L-37.26 7.09L-36.99 7.05L-36.35 6.84L-36.12 6.71L-34.22 5.08L-34.07 4.91L-33.77 4.4L-33.7 3.88L-33.87 3.15L-34 2.89L-35.48 0.98L-35.75 0.77L-35.91 0.7L6.69 0.7L6.69 0.96L6.84 1.4L7.21 1.86L7.56 2.1L8.24 2.26L16.29 2.26L16.52 2.23L17.08 2.03L17.48 1.67L17.7 1.21L25.02 1.21L25.25 1.17L25.81 0.98L26.12 0.7L38.94 0.7L38.24 0.92L37.99 1.06L35.75 3.01L35.6 3.19L35.31 3.71L35.23 4.16L35.32 4.75L35.47 5.08L35.8 5.46L38.14 7.37L38.37 7.49L39 7.69L39.26 7.72L42.16 7.54L42.35 7.66L42.82 7.85L43.01 7.9L45.26 8.12ZM17.61 -0.73L17.47 -0.95L15.66 -2.96L14.16 -5.14L13.99 -5.31L13.52 -5.66L12.97 -5.78L12.14 -5.62L11.84 -5.48L10.68 -4.57L9.53 -4.59L9.3 -4.55L8.74 -4.37L8.39 -4.11L8.09 -3.69L8 -3.51L7.02 -0.7L-45.11 -0.7L-45.41 -0.84L-45.47 -1.02L-45.47 -20.22L-45.33 -20.52L-45.15 -20.58L-42.85 -20.58L-42.55 -20.44L-42.49 -20.26L-42.49 -18.64L-42.42 -18.34L-42.34 -18.16L-41.94 -17.8L-41.4 -17.71L-41.18 -17.5L-40.81 -17.29L-40.59 -17.26L-35.51 -17.26L-35.21 -17.33L-34.91 -17.47L-34.7 -17.65L-34.43 -17.74L-33.54 -17.76L-33.43 -17.78L-30.68 -17.78L-30.56 -17.76L-30.28 -17.48L-29.95 -17.29L-29.73 -17.26L-24.65 -17.26L-24.34 -17.32L-24.07 -17.46L-23.79 -17.7L-23.55 -17.78L-22.16 -17.78L-22.04 -17.76L-21.85 -17.56L-21.76 -17.38L-21.36 -17.02L-21.07 -16.96L-9.03 -16.96L-8.73 -16.82L-8.51 -16.27L-8.11 -15.92L-7.82 -15.86L0.56 -15.86L0.86 -15.92L1.04 -16.01L1.4 -16.41L1.46 -16.71L1.46 -17.77L1.6 -18.07L1.77 -18.13L1.87 -18.11L2.06 -17.91L2.17 -17.67L2.57 -17.32L2.87 -17.26L6.28 -17.26L6.58 -17.11L6.64 -16.94L6.64 -15.83L6.71 -15.53L6.79 -15.35L7.2 -14.99L7.49 -14.93L18.61 -14.93L18.91 -14.78L18.97 -14.61L18.97 -14.18L19.04 -13.87L19.13 -13.69L19.53 -13.33L19.82 -13.27L29.91 -13.27L30.21 -13.34L30.4 -13.43L30.75 -13.83L30.96 -14.22L31.13 -14.28L40.88 -14.28L41.18 -14.35L41.4 -14.46L41.66 -14.68L41.77 -14.84L42.01 -14.92L45.11 -14.92L45.41 -14.78L45.47 -14.6L45.47 -1.06L45.33 -0.76L45.15 -0.7L26.62 -0.7L26.62 -3.61L26.58 -3.84L26.39 -4.4L26.1 -4.76L25.6 -5.08L25.23 -5.19L24.67 -5.17L23.95 -5.01L22.47 -6.94L22.3 -7.1L21.81 -7.42L21.31 -7.53L20.59 -7.41L20.32 -7.3L18.94 -6.41L17.44 -6.55L17.11 -6.5L16.32 -6.17L16.04 -5.96L14.72 -4.32L15.55 -3.11L17.02 -4.95L17.49 -5.14L18.93 -5L19.17 -5.02L19.45 -5.09L19.67 -5.19L20.97 -6.05L21.27 -6.1L21.43 -5.99L23.19 -3.74L23.56 -3.58L23.96 -3.58L24.9 -3.79L25.02 -3.79L25.14 -3.71L25.22 -3.49L25.22 -0.55L25.08 -0.25L24.9 -0.19L17.82 -0.19ZM46.87 -14.56L47.02 -14.86L47.19 -14.92L48.92 -14.92L46.87 -10.52L46.87 -9.1L49.48 -14.69L49.51 -14.6L49.51 -10.58L49.58 -10.28L49.66 -10.09L50.06 -9.73L50.44 -9.67L46.87 -2.02ZM47.36 -1.65L51.1 -9.67L51.47 -9.67L51.77 -9.53L51.83 -9.36L51.83 -4.96L51.6 -4.52ZM8.34 0.86L8.17 0.81L8.09 0.72L8.09 0.49L9.29 -2.96L9.39 -3.11L9.63 -3.19L10.78 -3.17L11.02 -3.21L11.3 -3.31L11.51 -3.42L12.58 -4.28L12.94 -4.35L13.07 -4.25L14.61 -2.02L16.35 -0.11L16.49 0.25L16.49 0.51L16.35 0.8L16.17 0.86ZM-40.78 5.47L-41.11 5.34L-42.45 4.13L-42.58 3.85L-42.51 3.67L-41.44 2.29L-41.05 2.08L-36.93 1.78L-36.48 1.98L-35.2 3.63L-35.12 3.93L-35.22 4.1L-36.92 5.55L-37.31 5.68ZM43.25 6.51L42.69 6.24L42.39 6.15L42.14 6.12L39.3 6.32L38.92 6.2L36.67 4.34L36.65 4.19L36.76 3.99L38.8 2.21L39.22 2.08L43.47 2.59L43.67 2.65L46.17 4.04L46.34 4.24L46.34 4.33L46.2 4.51L45.91 4.7L45.7 5.04L45.72 5.5L45.8 5.71L45.8 6.03L45.65 6.48L45.51 6.66L45.29 6.72ZM33.67 8.16L34.36 7.85L34.6 7.67L35.1 7.1L35.22 6.9L35.44 6.35L35.44 5.82L35.14 5.12L34.97 4.87L34.34 4.3L34.14 4.17L33.59 3.94L33.36 3.88L31.26 3.75L30.97 3.79L30.29 4.05L30.05 4.2L29.41 4.82L29.28 5L29.01 5.53L28.98 6.08L29.26 6.86L29.44 7.13L30.11 7.77L30.33 7.91L30.94 8.15L31.19 8.2L33.38 8.22ZM31.34 6.8L30.98 6.66L30.52 6.22L30.4 5.89L30.48 5.74L30.92 5.31L31.32 5.16L33.16 5.27L33.49 5.41L33.91 5.8L34.03 6.1L33.96 6.27L33.65 6.64L33.24 6.82Z"/>
</svg>
