<svg xmlns="http://www.w3.org/2000/svg" viewBox="-101.01 -120.81 202.88 132.76" data-palette="wall:#EFEADF;roof:#D9776B;wood:#C9A97C;earth:#94744F;water:#8FB0B8;flag:#4A3B32;ink:#3B2F28;halo:#F4EFE4"><!--"town" — Iron Ledger settlement kit-->
  <path data-role="sil" fill="#F4EFE4" stroke="#F4EFE4" stroke-width="3" stroke-linejoin="round" d="M-58.51 9.91L-57.95 9.72L-57.55 9.36L-57.4 9.06L-57.02 9.13L-56.32 9.01L-56.05 8.9L-51.18 5.65L-47.75 6.47L-43.41 7.17L-39.93 7.5L-39.73 8.05L-39.38 8.45L-38.67 8.79L-38.37 8.86L-7.03 8.86L-6.8 8.82L-6.24 8.63L-5.84 8.27L-5.69 7.97L-5.31 8.05L-4.6 7.92L-4.34 7.81L7.12 0.17L7.12 6.98L7.16 7.21L7.35 7.77L7.71 8.17L8.41 8.51L8.72 8.58L64.04 8.58L64.27 8.54L64.83 8.35L65.23 7.99L65.37 7.69L65.76 7.76L66.46 7.64L66.73 7.53L81.38 -2.24L81.61 -2.49L82.01 -3.24L82.09 -3.57L82.09 -3.88L82.7 -3.88L82.93 -3.92L83.49 -4.11L83.89 -4.47L84.03 -4.77L84.42 -4.69L85.12 -4.82L85.39 -4.93L99.16 -14.11L99.39 -14.36L99.79 -15.11L99.87 -15.44L99.85 -31.12L99.71 -31.67L93.11 -45.09L93.27 -45.7L93.3 -45.93L93.25 -46.52L93.07 -46.94L92.67 -47.38L92.32 -47.58L91.73 -47.71L78.22 -47.71L78.22 -63.8L78.19 -64.03L77.99 -64.59L77.71 -64.95L77.21 -65.26L77 -65.31L77.29 -65.6L77.89 -66.39L78.04 -66.67L78.31 -67.32L79.07 -67.23L79.4 -67.23L80.66 -67.41L80.97 -67.5L82.14 -67.98L82.41 -68.15L83.41 -68.93L83.64 -69.16L84.41 -70.17L84.56 -70.45L84.96 -71.4L85.31 -71.31L86.28 -71.19L86.61 -71.2L87.58 -71.33L87.9 -71.42L88.8 -71.8L89.08 -71.97L89.86 -72.58L90.08 -72.81L90.68 -73.6L90.84 -73.88L91.21 -74.79L91.29 -75.11L91.41 -76.08L91.4 -76.41L91.27 -77.38L91.18 -77.7L90.8 -78.6L90.63 -78.88L90.02 -79.66L89.79 -79.89L89 -80.48L88.72 -80.64L87.81 -81.01L87.5 -81.09L86.52 -81.21L86.19 -81.2L85.22 -81.07L84.9 -80.98L84 -80.6L83.72 -80.43L82.94 -79.83L82.71 -79.59L82.05 -78.69L80.88 -79.17L80.56 -79.25L79.31 -79.41L78.98 -79.4L77.73 -79.23L77.42 -79.14L76.25 -78.65L75.97 -78.48L74.97 -77.71L74.74 -77.47L73.98 -76.47L73.82 -76.18L73.34 -75.01L73.26 -74.69L73.16 -73.97L72.42 -73.86L72.11 -73.77L71.2 -73.39L70.93 -73.22L70.15 -72.62L69.92 -72.38L69.33 -71.6L69.17 -71.31L68.8 -70.4L68.72 -70.09L68.6 -69.11L68.6 -68.78L68.74 -67.81L68.83 -67.5L69.21 -66.59L69.38 -66.31L69.98 -65.53L70.22 -65.31L71 -64.71L71.29 -64.55L72.2 -64.18L72.51 -64.11L73.49 -63.98L74.12 -64.03L74.02 -63.93L67.48 -63.93L67.25 -63.89L66.69 -63.69L66.58 -63.6L66.66 -63.93L66.68 -64.16L66.62 -64.75L66.42 -65.17L66.01 -65.59L65.67 -65.78L65.11 -65.9L36.18 -65.9L36.79 -66.37L37.01 -66.61L37.78 -67.61L37.94 -67.9L38.33 -68.85L38.68 -68.76L39.66 -68.64L39.98 -68.64L40.95 -68.78L41.27 -68.86L42.17 -69.25L42.45 -69.41L43.23 -70.02L43.46 -70.25L44.05 -71.04L44.21 -71.33L44.58 -72.23L44.66 -72.55L44.78 -73.53L44.77 -73.86L44.64 -74.83L44.55 -75.14L44.17 -76.05L44 -76.32L43.4 -77.1L43.16 -77.33L42.38 -77.92L42.09 -78.08L41.18 -78.45L40.87 -78.53L39.89 -78.65L39.56 -78.65L38.59 -78.51L38.27 -78.42L37.37 -78.04L37.09 -77.87L36.31 -77.27L36.09 -77.04L35.42 -76.14L34.25 -76.61L33.93 -76.69L32.68 -76.85L32.36 -76.85L31.1 -76.67L30.79 -76.58L29.62 -76.09L29.34 -75.92L28.34 -75.15L28.11 -74.92L27.35 -73.91L27.19 -73.62L26.71 -72.45L26.62 -72.06L26.62 -75L26.59 -75.22L27.27 -75.68L27.45 -75.84L27.8 -76.31L27.94 -76.77L27.91 -77.42L27.85 -77.67L14.66 -106.98L14.53 -107.17L14.12 -107.6L13.67 -107.82L13.67 -108.69L13.72 -108.69L13.72 -112.7L14.12 -112.81L14.84 -113.16L15.45 -113.7L15.89 -114.37L16.15 -115.13L16.2 -115.94L16.04 -116.72L15.69 -117.44L15.15 -118.05L14.48 -118.5L13.71 -118.76L12.92 -118.81L12.12 -118.64L11.4 -118.29L10.8 -117.76L10.35 -117.09L10.09 -116.32L10.04 -115.52L10.2 -114.73L10.56 -114L11.1 -113.4L11.76 -112.96L12.52 -112.7L12.52 -108.69L12.57 -108.69L12.57 -107.75L12.16 -107.52L11.91 -107.27L11.7 -106.89L-1.48 -71.75L-1.52 -71.52L-1.54 -70.93L-1.4 -70.49L-1.04 -70.02L-0.68 -69.77L-0.32 -69.66L-0.38 -69.39L-0.38 -45.59L-2.89 -45.59L-2.9 -50.95L-3.02 -51.44L-9.27 -66.03L-9.07 -66.87L-9.06 -67.1L-9.13 -67.69L-9.32 -68.1L-9.73 -68.53L-10.08 -68.72L-10.63 -68.83L-23.92 -68.83L-23.92 -83.87L-23.96 -84.1L-24.15 -84.66L-24.44 -85.02L-24.94 -85.34L-25.09 -85.37L-24.8 -85.65L-24.25 -86.39L-24.09 -86.67L-23.85 -87.25L-23.16 -87.17L-22.84 -87.17L-21.66 -87.33L-21.35 -87.42L-20.26 -87.88L-19.98 -88.05L-19.04 -88.78L-18.81 -89.01L-18.1 -89.95L-17.94 -90.24L-17.58 -91.09L-17.28 -91.02L-16.36 -90.9L-16.04 -90.91L-15.13 -91.03L-14.82 -91.13L-13.97 -91.48L-13.69 -91.65L-12.96 -92.22L-12.73 -92.45L-12.18 -93.19L-12.02 -93.47L-11.68 -94.32L-11.6 -94.64L-11.48 -95.55L-11.49 -95.88L-11.61 -96.79L-11.7 -97.1L-12.06 -97.95L-12.23 -98.23L-12.79 -98.95L-13.03 -99.18L-13.76 -99.74L-14.05 -99.89L-14.9 -100.24L-15.22 -100.32L-16.13 -100.43L-16.46 -100.43L-17.37 -100.3L-17.68 -100.21L-18.53 -99.85L-18.81 -99.69L-19.53 -99.12L-19.76 -98.89L-20.36 -98.07L-21.44 -98.51L-21.75 -98.58L-22.93 -98.73L-23.26 -98.73L-24.43 -98.57L-24.74 -98.48L-25.84 -98.02L-26.12 -97.85L-27.05 -97.12L-27.28 -96.89L-28 -95.94L-28.16 -95.66L-28.61 -94.56L-28.68 -94.24L-28.77 -93.59L-29.43 -93.5L-29.75 -93.41L-30.6 -93.05L-30.88 -92.89L-31.6 -92.32L-31.83 -92.09L-32.38 -91.35L-32.54 -91.07L-32.89 -90.21L-32.97 -89.9L-33.08 -88.99L-33.08 -88.66L-32.95 -87.75L-32.86 -87.44L-32.5 -86.59L-32.33 -86.31L-31.77 -85.58L-31.53 -85.36L-30.8 -84.8L-30.52 -84.64L-29.66 -84.3L-29.35 -84.22L-28.67 -84.13L-34.05 -84.13L-34.28 -84.09L-34.84 -83.9L-35.24 -83.54L-35.58 -82.83L-35.65 -82.53L-35.65 -81.61L-35.61 -81.38L-35.41 -80.82L-35.06 -80.42L-34.63 -80.21L-34.63 -68.83L-52.49 -68.83L-52.72 -68.79L-53.28 -68.6L-53.63 -68.33L-53.93 -67.88L-54.02 -67.69L-58.58 -52.52L-62.51 -58.34L-67.61 -66.14L-67.77 -66.31L-68.24 -66.68L-68.76 -66.82L-69.55 -66.72L-69.85 -66.6L-84.19 -57.03L-84.53 -56.65L-90.03 -48.24L-95.8 -39.74L-98.74 -35.54L-98.84 -35.33L-99.01 -34.77L-98.98 -34.3L-98.75 -33.76L-98.39 -33.39L-97.72 -33.08L-97.43 -33.02L-97.17 -33.02L-97.17 -4.89L-97.13 -4.66L-96.93 -4.1L-96.58 -3.7L-95.87 -3.36L-95.57 -3.29L-84.34 -3.29L-84.34 8.35L-84.3 8.58L-84.1 9.14L-83.75 9.54L-83.04 9.88L-82.74 9.95L-58.74 9.95Z"/>
  <path data-role="wall" fill="#EFEADF" d="M-27.38 -84.91L-27.15 -84.97L-26.39 -85.29L-26.18 -85.41L-25.53 -85.91L-25.36 -86.08L-24.86 -86.74L-24.74 -86.94L-24.34 -87.93L-24.14 -87.99L-23.16 -87.86L-22.93 -87.86L-21.85 -88.01L-21.62 -88.07L-20.61 -88.49L-20.4 -88.61L-19.53 -89.27L-19.37 -89.44L-18.7 -90.3L-18.59 -90.51L-18.17 -91.52L-18.09 -91.89L-18.02 -92.01L-17.18 -91.71L-16.36 -91.6L-16.13 -91.6L-15.31 -91.71L-15.08 -91.77L-14.32 -92.09L-14.11 -92.21L-13.46 -92.71L-13.29 -92.88L-12.79 -93.54L-12.67 -93.74L-12.35 -94.5L-12.29 -94.73L-12.18 -95.55L-12.18 -95.79L-12.29 -96.61L-12.35 -96.83L-12.67 -97.6L-12.79 -97.8L-13.29 -98.46L-13.46 -98.63L-14.11 -99.13L-14.32 -99.25L-15.08 -99.56L-15.31 -99.63L-16.13 -99.73L-16.36 -99.73L-17.18 -99.63L-17.41 -99.56L-18.18 -99.25L-18.38 -99.13L-19.04 -98.63L-19.2 -98.46L-19.71 -97.8L-19.83 -97.6L-20 -97.17L-20.1 -97.08L-20.61 -97.41L-21.62 -97.83L-21.84 -97.89L-22.93 -98.03L-23.16 -98.03L-24.25 -97.89L-24.48 -97.83L-25.49 -97.41L-25.69 -97.29L-26.56 -96.63L-26.73 -96.46L-27.39 -95.59L-27.51 -95.39L-27.93 -94.38L-27.99 -94.15L-28.13 -93.09L-28.2 -92.95L-29.25 -92.83L-29.48 -92.77L-30.25 -92.45L-30.45 -92.33L-31.11 -91.83L-31.27 -91.66L-31.78 -91L-31.9 -90.8L-32.21 -90.03L-32.27 -89.81L-32.38 -88.99L-32.38 -88.75L-32.27 -87.93L-32.21 -87.71L-31.9 -86.94L-31.78 -86.73L-31.27 -86.08L-31.11 -85.91L-30.45 -85.41L-30.25 -85.29L-29.48 -84.97L-29.25 -84.91L-28.43 -84.8L-28.2 -84.8ZM-27.81 -80.56L-27.79 -80.62L-27.42 -80.8L-27.13 -80.9L-26.79 -81.61L-26.79 -82.53L-26.98 -83.09L-27.69 -83.43L-34.05 -83.43L-34.61 -83.23L-34.95 -82.53L-34.95 -81.61L-34.75 -81.05L-34.21 -80.79L-34.22 -80.76L-34.02 -80.69L-33.93 -80.5L-33.93 -68.83L-27.81 -68.83ZM74.61 -64.8L74.83 -64.86L75.66 -65.2L75.86 -65.32L76.57 -65.86L76.73 -66.03L77.28 -66.74L77.4 -66.94L77.82 -68L78.02 -68.07L79.07 -67.93L79.31 -67.93L80.47 -68.08L80.7 -68.14L81.78 -68.59L81.99 -68.71L82.92 -69.42L83.09 -69.59L83.8 -70.52L83.92 -70.72L84.37 -71.81L84.45 -72.21L84.52 -72.32L85.4 -72.01L86.28 -71.89L86.52 -71.89L87.4 -72.01L87.63 -72.07L88.45 -72.41L88.65 -72.53L89.36 -73.07L89.53 -73.24L90.07 -73.95L90.19 -74.15L90.53 -74.97L90.59 -75.2L90.71 -76.08L90.71 -76.32L90.59 -77.2L90.53 -77.43L90.19 -78.25L90.07 -78.45L89.53 -79.17L89.36 -79.33L88.65 -79.88L88.45 -79.99L87.63 -80.33L87.4 -80.39L86.52 -80.51L86.28 -80.51L85.4 -80.39L85.17 -80.33L84.35 -79.99L84.15 -79.88L83.44 -79.33L83.27 -79.16L82.72 -78.45L82.61 -78.25L82.42 -77.79L82.32 -77.69L81.78 -78.05L80.7 -78.49L80.47 -78.56L79.31 -78.71L79.07 -78.71L77.91 -78.56L77.68 -78.49L76.6 -78.04L76.39 -77.93L75.46 -77.21L75.3 -77.05L74.58 -76.11L74.47 -75.91L74.02 -74.82L73.95 -74.6L73.8 -73.46L73.73 -73.31L72.6 -73.19L72.38 -73.13L71.56 -72.78L71.35 -72.67L70.64 -72.12L70.47 -71.96L69.93 -71.25L69.81 -71.04L69.47 -70.22L69.41 -70L69.3 -69.11L69.3 -68.88L69.41 -67.99L69.47 -67.76L69.81 -66.94L69.93 -66.74L70.47 -66.03L70.64 -65.86L71.35 -65.32L71.56 -65.2L72.38 -64.86L72.6 -64.8L73.49 -64.68L73.72 -64.68ZM9.09 -62.24L9.32 -62.3L10.14 -62.64L10.34 -62.76L11.05 -63.31L11.22 -63.47L11.76 -64.18L11.88 -64.39L12.3 -65.44L12.5 -65.51L13.56 -65.37L13.79 -65.37L14.95 -65.52L15.18 -65.58L16.27 -66.04L16.47 -66.15L17.4 -66.87L17.57 -67.03L18.28 -67.96L18.4 -68.17L18.85 -69.25L18.93 -69.65L19 -69.77L19.88 -69.45L20.77 -69.33L21 -69.33L21.88 -69.45L22.11 -69.51L22.94 -69.86L23.14 -69.97L23.85 -70.51L24.01 -70.68L24.56 -71.39L24.68 -71.59L25.02 -72.42L25.08 -72.64L25.19 -73.53L25.19 -73.76L25.08 -74.65L25.02 -74.87L24.68 -75.69L24.56 -75.9L24.01 -76.61L23.85 -76.78L23.14 -77.32L22.94 -77.43L22.11 -77.78L21.88 -77.84L21 -77.95L20.77 -77.95L19.88 -77.84L19.65 -77.78L18.83 -77.44L18.63 -77.32L17.92 -76.78L17.75 -76.61L17.21 -75.9L17.09 -75.7L16.9 -75.23L16.8 -75.13L16.27 -75.49L15.18 -75.94L14.95 -76L13.79 -76.15L13.56 -76.15L12.4 -76L12.17 -75.94L11.08 -75.49L10.88 -75.37L9.95 -74.66L9.78 -74.49L9.06 -73.56L8.95 -73.35L8.5 -72.27L8.44 -72.04L8.29 -70.9L8.22 -70.76L7.09 -70.63L6.86 -70.57L6.04 -70.23L5.84 -70.11L5.13 -69.57L4.96 -69.4L4.42 -68.69L4.3 -68.49L3.96 -67.67L3.9 -67.44L3.78 -66.55L3.78 -66.32L3.9 -65.44L3.96 -65.21L4.3 -64.38L4.42 -64.18L4.96 -63.47L5.13 -63.31L5.84 -62.76L6.04 -62.64L6.86 -62.3L7.09 -62.24L7.97 -62.13L8.21 -62.13ZM27.98 -62.24L28.21 -62.3L29.03 -62.64L29.23 -62.76L29.94 -63.31L30.11 -63.47L30.65 -64.18L30.77 -64.39L31.19 -65.44L31.39 -65.51L32.45 -65.37L32.68 -65.37L33.84 -65.52L34.07 -65.58L35.16 -66.04L35.36 -66.15L36.29 -66.87L36.46 -67.03L37.17 -67.96L37.29 -68.17L37.74 -69.25L37.82 -69.65L37.89 -69.77L38.77 -69.45L39.66 -69.33L39.89 -69.33L40.77 -69.45L41 -69.51L41.82 -69.85L42.02 -69.97L42.73 -70.51L42.9 -70.68L43.45 -71.39L43.56 -71.59L43.9 -72.42L43.96 -72.64L44.08 -73.53L44.08 -73.76L43.96 -74.65L43.9 -74.87L43.56 -75.69L43.45 -75.9L42.9 -76.61L42.73 -76.78L42.02 -77.32L41.82 -77.44L41 -77.78L40.77 -77.84L39.89 -77.95L39.65 -77.95L38.77 -77.84L38.54 -77.78L37.72 -77.44L37.52 -77.32L36.81 -76.78L36.64 -76.61L36.1 -75.9L35.98 -75.7L35.79 -75.23L35.69 -75.13L35.16 -75.49L34.07 -75.94L33.84 -76L32.68 -76.15L32.45 -76.15L31.29 -76L31.06 -75.94L29.97 -75.49L29.77 -75.37L28.84 -74.66L28.67 -74.49L27.95 -73.56L27.84 -73.35L27.39 -72.27L27.33 -72.04L27.18 -70.9L27.11 -70.76L25.97 -70.63L25.75 -70.57L24.93 -70.23L24.72 -70.11L24.01 -69.57L23.85 -69.4L23.3 -68.69L23.18 -68.49L22.84 -67.67L22.79 -67.44L22.67 -66.56L22.67 -66.32L22.79 -65.43L22.84 -65.21L23.18 -64.39L23.3 -64.18L23.85 -63.47L24.01 -63.31L24.72 -62.76L24.93 -62.64L25.75 -62.3L25.97 -62.24L26.86 -62.13L27.1 -62.13ZM1.44 -57.26L0.95 -57.5L0.59 -57.9L0.4 -58.46L0.36 -58.69L0.36 -59.77L0.43 -60.07L0.77 -60.78L1.17 -61.14L1.73 -61.33L1.96 -61.37L8.51 -61.37L8.6 -61.47L7.88 -61.43L6.91 -61.57L6.59 -61.66L5.69 -62.04L5.41 -62.21L4.63 -62.81L4.4 -63.05L3.81 -63.83L3.65 -64.12L3.28 -65.03L3.2 -65.34L3.08 -66.32L3.08 -66.64L3.22 -67.62L3.31 -67.93L3.69 -68.84L3.86 -69.12L4.22 -69.59L0.42 -69.59L0.32 -69.39L0.32 -45.59L1.34 -45.56L1.44 -45.54ZM16.32 -48.72L16.32 -65.3L15.36 -64.91L15.04 -64.83L13.79 -64.67L13.47 -64.68L12.8 -64.77L12.49 -64.03L12.32 -63.76L11.71 -62.98L11.48 -62.75L11.69 -62.71L12.19 -62.39L12.47 -62.03L12.67 -61.47L12.71 -61.24L12.71 -45.15L15.26 -45.15ZM74.15 -60.19L74.17 -60.26L74.41 -60.37L74.89 -60.54L75.23 -61.24L75.23 -62.33L75.03 -62.88L74.33 -63.23L67.48 -63.23L66.92 -63.03L66.58 -62.33L66.58 -61.24L66.77 -60.68L67.57 -60.32L67.66 -60.14L67.66 -47.71L74.15 -47.71ZM27.52 -57.64L27.54 -57.7L27.78 -57.82L28.26 -57.98L28.6 -58.69L28.6 -59.77L28.41 -60.33L27.7 -60.67L20.85 -60.67L20.29 -60.48L19.95 -59.77L19.95 -58.69L20.14 -58.13L20.94 -57.77L21.03 -57.58L21.03 -45.15L27.52 -45.15ZM8.63 -57.64L8.65 -57.7L8.89 -57.82L9.37 -57.98L9.71 -58.69L9.71 -59.77L9.52 -60.33L8.81 -60.67L1.96 -60.67L1.4 -60.48L1.06 -59.77L1.06 -58.69L1.25 -58.13L2.05 -57.77L2.14 -57.58L2.14 -45.22L2.2 -45.15L8.63 -45.15ZM-84.34 -9.09L-84.45 -9.09L-84.78 -9.17L-85.52 -9.56L-85.87 -10L-86.03 -10.57L-86 -11.03L-85.76 -11.57L-85.64 -11.77L-79.03 -19.14L-71.22 -28.12L-71.22 -33.57L-71.2 -33.63L-71.02 -33.72L-70.25 -33.72L-69.7 -33.91L-69.38 -34.41L-69.52 -35.14L-74.41 -42.17L-80.13 -50.7L-83.09 -55.26L-83.55 -55.62L-84.14 -55.62L-84.6 -55.26L-89.45 -47.85L-93.28 -42.17L-98.17 -35.14L-98.33 -34.57L-98.11 -34.02L-97.43 -33.72L-96.62 -33.72L-96.56 -33.7L-96.47 -33.52L-96.47 -4.89L-96.27 -4.33L-95.57 -3.99L-84.34 -3.99ZM-39.22 -29.5L-37.48 -35.13L-36.12 -39.82L-55.38 -39.82L-55.38 -38.33L-54.9 -38.25L-54.39 -37.95L-54.21 -37.8L-47.26 -29.79L-40.01 -29.79L-39.72 -29.73ZM-58.18 9.06L-57.84 8.35L-57.84 -9.64L-57.82 -9.7L-57.63 -9.79L-57.02 -9.79L-56.46 -9.98L-56.14 -10.48L-56.35 -11.29L-62.97 -18.68L-70.05 -26.84L-70.56 -27.14L-71.15 -27.05L-71.42 -26.84L-78.5 -18.68L-85.12 -11.29L-85.35 -10.75L-85.2 -10.18L-84.45 -9.79L-83.79 -9.79L-83.72 -9.77L-83.64 -9.58L-83.64 8.35L-83.44 8.91L-82.74 9.25L-58.74 9.25ZM64.6 7.69L64.94 6.98L64.94 -18.93L8.28 -18.93L8.28 -1.46L8.2 -1.13L7.82 -0.42L7.82 6.98L8.01 7.54L8.72 7.88L64.04 7.88ZM-6.47 7.97L-6.13 7.26L-6.13 -18.65L-39.27 -18.65L-39.27 7.26L-39.07 7.82L-38.37 8.16L-7.03 8.16ZM83.26 -4.77L83.6 -5.48L83.6 -16.98L82.09 -16.98L82.09 -4.58L82.7 -4.58ZM-39.97 -3.59L-40.25 -4L-40.39 -4.46L-40.38 -9.52L-40.15 -10.08L-39.97 -10.31L-39.97 -14.12L-41.15 -13.33L-41.06 -13.22L-40.93 -12.82L-40.91 -12.23L-41.05 -11.79L-41.41 -11.32L-41.66 -11.1L-41.66 -1.55L-41.74 -1.22L-42.15 -0.47L-42.37 -0.22L-50.38 5.12L-47.64 5.78L-43.35 6.47L-39.97 6.79Z"/>
  <path data-role="wall-shade" fill="#cbc5ba" d="M-24.62 -83.87L-24.81 -84.43L-25.31 -84.75L-26.02 -84.62L-27.08 -83.91L-26.68 -83.72L-26.32 -83.32L-26.13 -82.76L-26.09 -82.53L-26.09 -81.61L-26.16 -81.31L-26.5 -80.6L-26.9 -80.24L-27.11 -80.17L-27.11 -68.83L-24.62 -68.83ZM25.2 -71.1L25.92 -71.33L25.92 -74.78L25.78 -74.68L25.89 -73.76L25.89 -73.44L25.75 -72.46L25.66 -72.15ZM19.26 -58.61L19.25 -59.77L19.32 -60.07L19.66 -60.78L20 -61.08L21.09 -64.75L21.18 -64.95L21.49 -65.4L21.84 -65.67L22.04 -65.73L21.97 -66.32L21.97 -66.65L22.11 -67.62L22.2 -67.93L22.66 -68.98L21.97 -68.76L21 -68.64L20.68 -68.64L19.7 -68.78L19.44 -68.85L19.01 -67.82L18.84 -67.54L18.07 -66.54L17.83 -66.31L17.02 -65.69L17.02 -51.08ZM-3.59 -50.81L-3.66 -51.16L-9.54 -64.88L-14 -45.59L-3.59 -45.59ZM77.53 -63.8L77.33 -64.36L76.83 -64.67L76.13 -64.55L74.9 -63.73L75.34 -63.52L75.69 -63.12L75.89 -62.56L75.93 -62.33L75.93 -61.24L75.86 -60.94L75.52 -60.23L75.12 -59.88L74.85 -59.78L74.85 -47.71L77.53 -47.71ZM12.01 -61.24L11.81 -61.8L11.31 -62.12L10.61 -61.99L9.38 -61.17L9.82 -60.96L10.18 -60.56L10.37 -60L10.41 -59.77L10.41 -58.69L10.34 -58.38L10 -57.68L9.6 -57.32L9.33 -57.23L9.33 -45.15L12.01 -45.15ZM30.9 -61.24L30.7 -61.8L30.2 -62.12L29.5 -61.99L28.27 -61.17L28.71 -60.96L29.07 -60.56L29.26 -60L29.3 -59.77L29.3 -58.69L29.23 -58.38L28.89 -57.68L28.49 -57.32L28.22 -57.23L28.22 -45.15L30.9 -45.15ZM66.96 -59.82L66.47 -60.05L66.11 -60.45L65.95 -60.91L62.83 -47.71L66.96 -47.71ZM85 -5.51L98.77 -14.69L99.17 -15.44L99.17 -30.96L99.08 -31.36L92.84 -44.06L90.02 -33.16L87.19 -21.56L87.19 -18.58L87.12 -18.27L86.78 -17.57L86.38 -17.21L85.82 -17.02L85.59 -16.98L84.3 -16.98L84.29 -5.38ZM-4.73 7.23L7.18 -0.71L7.58 -1.46L7.58 -29.06L7.5 -29.42L2.2 -41.52L0.58 -34.77L-0.87 -28.37L-2.63 -19.93L-2.72 -19.71L-3.04 -19.18L-3.41 -18.88L-3.97 -18.69L-4.2 -18.65L-5.43 -18.65L-5.43 7.36ZM74.77 -41.51L73.68 -37.8L77.19 -37.8ZM-70.52 -28.62L-56.31 -38.1L-56.08 -38.19L-56.08 -41.18L-67.4 -33.63L-67.69 -33.52L-68.44 -33.4L-68.95 -33.52L-69.06 -33.6L-69.11 -33.54L-69.47 -33.25L-70.03 -33.06L-70.25 -33.02L-70.52 -33.02ZM66.34 6.95L80.99 -2.82L81.39 -3.57L81.39 -16.98L80.54 -16.98L80.23 -17.05L79.53 -17.39L79.17 -17.79L78.98 -18.35L78.94 -18.58L78.94 -22.87L79.01 -23.17L79.35 -23.88L79.75 -24.24L80.31 -24.43L80.54 -24.47L81.39 -24.47L81.39 -31.09L81.24 -31.59L78.11 -36.4L73.27 -36.4L68.47 -20.08L68.38 -19.89L68.07 -19.43L67.72 -19.16L67.16 -18.97L66.93 -18.93L65.64 -18.93L65.63 7.08ZM-56.44 8.32L-42.76 -0.8L-42.36 -1.55L-42.36 -17.36L-53.95 -9.64L-54.19 -9.53L-54.84 -9.39L-55.32 -9.46L-55.8 -9.72L-55.87 -9.61L-56.23 -9.32L-56.79 -9.13L-57.14 -9.09L-57.15 8.45Z"/>
  <path data-role="wood" fill="#C9A97C" d="M86.15 -17.87L86.49 -18.58L86.49 -22.87L86.3 -23.43L85.59 -23.77L80.54 -23.77L79.98 -23.57L79.64 -22.87L79.64 -18.58L79.83 -18.02L80.54 -17.68L85.59 -17.68Z"/>
  <path data-role="wood-shade" fill="#a68b67" d="M-41.07 -23.91L-41.48 -23.32L-41.33 -23.16ZM-40.16 -14.83L-39.97 -15.18L-39.97 -17.6L-40.26 -17.75L-40.7 -18.16L-40.82 -18.39L-41.66 -17.83L-41.66 -13.89L-41.62 -13.86Z"/>
  <path data-role="roof" fill="#D9776B" d="M13.24 -113.34L13.85 -113.45L14.41 -113.72L14.89 -114.12L15.24 -114.64L15.46 -115.22L15.51 -115.84L15.39 -116.46L15.13 -117.02L14.72 -117.5L14.21 -117.85L13.62 -118.06L13.01 -118.11L12.62 -118.06L12.03 -117.85L11.52 -117.5L11.12 -117.02L10.85 -116.46L10.74 -115.84L10.79 -115.22L11 -114.64L11.35 -114.12L11.83 -113.72L12.39 -113.45L13 -113.34ZM4.91 -70.29L5.48 -70.72L5.77 -70.88L6.68 -71.25L6.99 -71.32L7.65 -71.41L7.76 -72.22L7.85 -72.54L8.34 -73.7L8.51 -73.98L9.29 -74.98L9.52 -75.21L10.53 -75.98L10.81 -76.13L11.99 -76.61L12.3 -76.69L13.56 -76.85L13.88 -76.85L15.13 -76.67L15.45 -76.58L16.54 -76.13L17.09 -76.9L13.67 -104.29L13.67 -103.89L12.57 -103.89L12.57 -106.94L12.52 -106.91L12.36 -106.64L-0.82 -71.5L-0.84 -70.91L-0.48 -70.44L0.02 -70.29ZM-35.93 -40.52L-34.87 -44.4L-34.78 -44.6L-34.47 -45.08L-34.11 -45.35L-33.55 -45.55L-33.32 -45.59L-14.72 -45.59L-9.76 -67.03L-9.82 -67.61L-10.23 -68.04L-10.63 -68.13L-52.49 -68.13L-53.05 -67.94L-53.35 -67.49L-58.07 -51.78L-53.33 -44.98L-53.21 -44.68L-53.09 -43.88L-53.23 -43.36L-53.58 -42.88L-53.75 -42.72L-55.38 -41.64L-55.38 -40.52ZM45.59 -46.57L45.68 -46.76L45.98 -47.21L46.33 -47.48L46.89 -47.67L47.12 -47.71L62.12 -47.71L65.98 -64.09L65.92 -64.68L65.51 -65.1L65.11 -65.2L34.97 -65.2L34.25 -64.91L33.93 -64.83L32.68 -64.67L32.36 -64.68L31.68 -64.77L31.38 -64.03L31.21 -63.76L30.6 -62.98L30.37 -62.75L30.58 -62.71L31.08 -62.39L31.36 -62.03L31.56 -61.47L31.6 -61.24L31.6 -45.15L42.83 -45.15L43.44 -45.02L43.78 -44.81L43.91 -44.67L45.01 -44.67ZM20.81 -61.36L27.4 -61.37L27.49 -61.47L26.77 -61.43L25.79 -61.57L25.48 -61.66L24.57 -62.04L24.3 -62.21L23.52 -62.81L23.29 -63.05L22.7 -63.83L22.54 -64.12L22.16 -65.04L22.07 -65L21.76 -64.56ZM20.33 -57.26L19.84 -57.5L19.71 -57.65L15.99 -45.15L20.33 -45.15ZM86.96 -23.66L90.2 -36.71L92.6 -45.88L92.55 -46.47L92.15 -46.9L91.73 -47.01L47.12 -47.01L46.56 -46.81L46.26 -46.37L45.74 -44.67L73.56 -44.67L74.19 -44.53L74.53 -44.32L74.92 -43.87L75.09 -43.44L75.12 -42.85L75.03 -42.39L78.03 -37.8L84.59 -37.8L84.59 -36.4L83.36 -36.4L83.36 -24.47L85.59 -24.47L85.9 -24.4L86.6 -24.06ZM-3.64 -19.54L-3.32 -20.07L-2.22 -25.43L-0.84 -31.72L0.67 -38.2L2.05 -43.77L1.99 -44.36L1.59 -44.78L1.17 -44.88L-33.32 -44.88L-33.88 -44.69L-34.19 -44.22L-35.85 -38.2L-37.78 -31.72L-39.81 -25.43L-40.8 -22.56L-39.61 -21.25L-39.43 -20.95L-39.33 -20.61L-39.32 -20.01L-39.46 -19.58L-39.63 -19.35L-4.2 -19.35ZM13.57 -43.64L13.94 -44.19L14.31 -44.45L2.67 -44.45L2.74 -43.83L2.73 -43.6L2.48 -42.63L8.19 -29.56ZM67.49 -19.83L67.79 -20.28L74.42 -42.82L74.4 -43.41L74.01 -43.85L73.56 -43.97L15.06 -43.97L14.51 -43.78L14.22 -43.39L8.28 -27.83L8.28 -19.63L66.93 -19.63ZM82.77 -36.4L78.94 -36.4L81.83 -31.97L81.91 -31.78L82.06 -31.29L82.09 -31.09L82.09 -24.47L82.77 -24.47ZM-40.28 -26.24L-39.43 -28.83L-40.01 -29.09L-46.64 -29.09L-41.97 -23.86ZM-39.97 -18.65L-40.2 -18.65L-39.97 -18.43Z"/>
  <path data-role="roof-shade" fill="#aa6157" d="M26.89 -76.26L27.24 -76.73L27.21 -77.38L14.02 -106.69L13.67 -107.06L13.67 -104.29L17.09 -76.9L17.49 -77.33L18.28 -77.92L18.57 -78.08L19.47 -78.45L19.79 -78.53L20.77 -78.65L21.09 -78.65L22.06 -78.51L22.38 -78.42L23.29 -78.04L23.57 -77.87L24.34 -77.27L24.57 -77.03L25.16 -76.25L25.32 -75.96L25.56 -75.38ZM-67.79 -34.21L-54.14 -43.31L-53.78 -43.78L-53.91 -44.57L-59.26 -52.27L-63.09 -57.95L-68.2 -65.76L-68.67 -66.13L-69.46 -66.02L-83.11 -56.92L-83.46 -56.45L-83.44 -56.28L-83.12 -56.17L-82.66 -55.81L-82.5 -55.64L-77.66 -48.24L-71.89 -39.74L-68.95 -35.54L-68.83 -35.27L-68.69 -34.55L-68.75 -34.24L-68.54 -34.09ZM-54.34 -10.22L-40.38 -19.53L-40.02 -20L-40.03 -20.59L-40.21 -20.88L-47.49 -29L-54.74 -37.35L-55.25 -37.65L-55.92 -37.51L-69.89 -28.2L-70.24 -27.75L-69.7 -27.44L-69.52 -27.29L-62.45 -19.14L-55.84 -11.77L-55.68 -11.47L-55.47 -10.66L-55.5 -10.36L-54.98 -10.08ZM-41.61 -12.21L-41.63 -12.8L-41.66 -12.85L-41.66 -12.15Z"/>
  <path data-role="ink" fill="#3B2F28" d="M13.19 -114.04L12.62 -114.12L12.22 -114.31L11.88 -114.58L11.63 -114.95L11.48 -115.36L11.44 -115.8L11.51 -116.23L11.7 -116.63L11.98 -116.97L12.34 -117.22L12.76 -117.37L13.19 -117.41L13.62 -117.34L14.02 -117.15L14.36 -116.87L14.62 -116.5L14.77 -116.09L14.81 -115.66L14.73 -115.22L14.54 -114.82L14.26 -114.48L13.9 -114.23L13.49 -114.08ZM6.04 -70.99L0.13 -70.99L-0.06 -71.04L-0.13 -71.14L-0.13 -71.37L12.57 -105.23L12.57 -103.89L13.02 -103.89L16.48 -76.16L15.36 -76.61L15.04 -76.69L13.79 -76.85L13.47 -76.85L12.21 -76.67L11.9 -76.58L10.73 -76.09L10.45 -75.92L9.45 -75.15L9.23 -74.92L8.46 -73.91L8.3 -73.62L7.82 -72.45L7.74 -72.13L7.65 -71.41L6.91 -71.31L6.59 -71.22ZM17.54 -97.16L15 -99.29L14.7 -101.68L16 -100.59L15.43 -101.85L14.59 -102.56L14.39 -104.16ZM-28.25 -85.5L-29.26 -85.64L-30.06 -85.99L-30.75 -86.54L-31.27 -87.25L-31.59 -88.07L-31.68 -88.94L-31.55 -89.81L-31.2 -90.61L-30.64 -91.3L-29.94 -91.82L-29.12 -92.14L-28.12 -92.25L-27.73 -92.43L-27.43 -93L-27.27 -94.15L-26.81 -95.2L-26.1 -96.1L-25.18 -96.78L-24.11 -97.2L-22.97 -97.33L-21.84 -97.16L-20.79 -96.71L-20.37 -96.43L-19.95 -96.39L-19.56 -96.61L-19.36 -96.9L-19.13 -97.42L-18.57 -98.1L-17.87 -98.62L-17.05 -98.94L-16.17 -99.03L-15.31 -98.9L-14.5 -98.55L-13.81 -98L-13.3 -97.29L-12.98 -96.47L-12.88 -95.6L-13.02 -94.73L-13.37 -93.92L-13.92 -93.24L-14.62 -92.72L-15.45 -92.4L-16.32 -92.3L-17.18 -92.44L-17.91 -92.7L-18.34 -92.63L-18.65 -92.32L-18.83 -91.75L-19.28 -90.7L-19.99 -89.81L-20.91 -89.12L-21.98 -88.69L-23.12 -88.56L-24.05 -88.69L-24.36 -88.66L-24.56 -88.59L-24.96 -88.24L-25.44 -87.13L-25.99 -86.44L-26.69 -85.92L-27.52 -85.6ZM23.89 -83.06L16.23 -89.49L15.93 -91.88L22.34 -86.5L21.77 -87.76L15.82 -92.75L15.52 -95.14L20.23 -91.2L19.66 -92.46L15.41 -96.02L15.11 -98.41L18.11 -95.9ZM26 -78.36L16.64 -86.22L16.34 -88.61L24.45 -81.8ZM26.4 -76.78L25.28 -76.05L25.11 -76.33L24.51 -77.1L24.27 -77.33L23.49 -77.92L23.2 -78.08L22.51 -78.37L17.05 -82.95L16.75 -85.34L26.52 -77.14L26.53 -76.95ZM-26.32 -83.32L-26.47 -83.48L-25.75 -83.96L-25.65 -83.98L-26.16 -82.87ZM-27.11 -79.43L-26.61 -80.5L-26.5 -80.6L-26.16 -81.31L-26.09 -81.61L-25.32 -83.26L-25.32 -79.05L-27.11 -75.22L-27.11 -73.8L-25.32 -77.63L-25.32 -73.42L-27.11 -69.58ZM-33.23 -68.83L-33.23 -80.5L-33.3 -80.81L-33.38 -80.99L-33.78 -81.35L-34.19 -81.55L-34.25 -81.73L-34.25 -82.37L-34.1 -82.67L-33.93 -82.73L-27.85 -82.73L-27.55 -82.58L-27.49 -82.41L-27.49 -81.77L-27.7 -81.4L-27.72 -81.43L-28.09 -81.25L-28.45 -80.85L-28.51 -80.56L-28.51 -68.83ZM17.45 -79.69L17.15 -82.08L21.27 -78.63L20.67 -78.65L19.7 -78.51L19.1 -78.31ZM73.68 -65.38L72.6 -65.53L71.75 -65.9L71 -66.49L70.44 -67.25L70.1 -68.13L70 -69.06L70.14 -70L70.51 -70.85L71.1 -71.59L71.86 -72.16L72.74 -72.5L73.81 -72.62L74.2 -72.79L74.5 -73.36L74.68 -74.6L75.17 -75.73L75.93 -76.69L76.9 -77.41L78.05 -77.87L79.26 -78.01L80.47 -77.83L81.6 -77.34L82.04 -77.05L82.46 -77L82.86 -77.23L83.06 -77.52L83.31 -78.06L83.89 -78.8L84.66 -79.36L85.54 -79.7L86.47 -79.81L87.41 -79.67L88.27 -79.29L89 -78.7L89.56 -77.94L89.9 -77.06L90.01 -76.13L89.87 -75.19L89.49 -74.33L88.9 -73.59L88.14 -73.04L87.26 -72.7L86.33 -72.59L85.4 -72.73L84.62 -73.02L84.16 -72.93L83.89 -72.64L83.76 -72.3L83.7 -72.04L83.22 -70.91L82.46 -69.96L81.47 -69.22L80.34 -68.77L79.12 -68.63L78.11 -68.76L77.8 -68.73L77.6 -68.67L77.2 -68.32L76.7 -67.13L76.1 -66.39L75.35 -65.83L74.47 -65.49ZM17.73 -77.51L17.56 -78.81L18.48 -78.04L18.2 -77.88ZM27.05 -62.83L25.97 -62.97L25.12 -63.34L24.38 -63.93L23.82 -64.69L23.47 -65.57L23.37 -66.51L23.51 -67.44L23.88 -68.3L24.47 -69.04L25.24 -69.6L26.11 -69.94L27.18 -70.06L27.58 -70.24L27.87 -70.81L28.05 -72.04L28.54 -73.17L29.3 -74.13L30.28 -74.86L31.42 -75.31L32.64 -75.45L33.84 -75.28L34.97 -74.79L35.42 -74.49L35.78 -74.44L36.22 -74.67L36.43 -74.96L36.68 -75.51L37.27 -76.25L38.03 -76.81L38.91 -77.15L39.84 -77.25L40.78 -77.11L41.63 -76.74L42.37 -76.15L42.93 -75.39L43.28 -74.51L43.38 -73.57L43.24 -72.64L42.87 -71.78L42.27 -71.04L41.51 -70.48L40.63 -70.14L39.7 -70.03L38.77 -70.17L37.99 -70.46L37.53 -70.37L37.26 -70.08L37.13 -69.74L37.08 -69.48L36.59 -68.35L35.83 -67.39L34.85 -66.67L33.71 -66.21L32.49 -66.07L31.48 -66.2L31.17 -66.17L30.98 -66.11L30.57 -65.76L30.07 -64.57L29.48 -63.84L28.72 -63.27L27.84 -62.93ZM8.16 -62.83L7.08 -62.97L6.23 -63.34L5.49 -63.93L4.93 -64.69L4.58 -65.57L4.48 -66.51L4.62 -67.44L5 -68.3L5.58 -69.03L6.35 -69.6L7.23 -69.94L8.29 -70.06L8.69 -70.24L8.98 -70.81L9.16 -72.04L9.64 -73.16L10.41 -74.13L11.39 -74.86L12.53 -75.31L13.75 -75.45L14.95 -75.28L16.09 -74.79L16.53 -74.49L16.94 -74.45L17.34 -74.67L17.55 -74.96L17.79 -75.51L18.38 -76.24L19.14 -76.81L20.02 -77.15L20.95 -77.25L21.88 -77.11L22.75 -76.73L23.49 -76.14L24.05 -75.39L24.39 -74.51L24.49 -73.57L24.35 -72.64L23.97 -71.78L23.38 -71.04L22.63 -70.49L21.74 -70.14L20.81 -70.03L19.89 -70.17L19.1 -70.46L18.65 -70.37L18.37 -70.08L18.24 -69.74L18.19 -69.48L17.7 -68.35L16.94 -67.39L15.96 -66.67L14.82 -66.21L13.6 -66.07L12.59 -66.2L12.28 -66.17L12.09 -66.11L11.68 -65.76L11.18 -64.57L10.59 -63.84L9.83 -63.27L8.95 -62.93ZM-26.8 -68.83L-25.32 -72L-25.32 -68.83ZM1.02 -61L1.02 -69.23L1.17 -69.53L1.34 -69.59L4.22 -69.59L3.81 -69.04L3.65 -68.76L3.28 -67.85L3.2 -67.53L3.08 -66.55L3.08 -66.23L3.22 -65.25L3.31 -64.94L3.69 -64.03L3.86 -63.76L4.47 -62.98L4.8 -62.67L4.8 -61.37L1.96 -61.37L1.73 -61.33L1.17 -61.14ZM12.71 -45.15L12.71 -61.24L12.67 -61.47L12.47 -62.03L12.19 -62.39L11.84 -62.61L11.84 -63.13L12.37 -63.83L12.53 -64.12L12.8 -64.77L13.56 -64.67L13.88 -64.68L15.13 -64.85L15.62 -65.01L15.62 -46.37L17.02 -51.08L17.02 -65.69L17.9 -66.37L18.13 -66.61L18.89 -67.61L19.05 -67.9L19.44 -68.85L20.08 -68.72L17.02 -62.17L17.02 -60.75L20.7 -68.64L21.09 -68.64L22.06 -68.78L22.66 -68.98L17.02 -56.87L17.02 -55.45L20.61 -63.15L20 -61.08L19.66 -60.78L19.32 -60.07L19.25 -59.77L19.26 -58.61L17.43 -52.43L17.02 -51.56L17.02 -51.08L15.26 -45.15ZM-56.38 -54.97L-54.54 -61.1L-11.85 -61.1L-11.71 -61.7L-54.36 -61.7L-52.71 -67.18L-52.6 -67.35L-52.37 -67.43L-10.72 -67.43L-10.59 -67.4L-10.49 -67.3L-10.47 -67.07L-13.27 -54.97ZM21.76 -65.61L21.99 -66.1L22.04 -65.73L21.84 -65.67ZM-60.22 -52.44L-75.99 -60.83L-69.41 -65.22L-68.31 -64.63L-66.14 -61.3L-71.22 -64L-71.79 -63.63L-65.46 -60.26ZM21.55 -61.37L22.4 -64.25L22.45 -64.33L22.75 -63.76L23.35 -62.98L23.59 -62.75L24.37 -62.16L24.66 -62L25.57 -61.63L25.88 -61.55L26.86 -61.43L27.49 -61.47L27.4 -61.37ZM43.91 -44.67L43.78 -44.81L43.44 -45.02L42.83 -45.15L31.6 -45.15L31.6 -61.24L31.56 -61.47L31.36 -62.03L31.08 -62.39L30.58 -62.71L30.37 -62.75L30.66 -63.05L31.26 -63.83L31.42 -64.12L31.57 -64.5L65.02 -64.5L65.15 -64.47L65.25 -64.36L65.27 -64.14L63.91 -58.37L31.6 -58.37L31.6 -57.77L63.77 -57.77L62.23 -51.24L31.6 -51.24L31.6 -50.64L62.09 -50.64L61.4 -47.71L47.12 -47.71L46.89 -47.67L46.33 -47.48L45.98 -47.21L45.68 -46.76L45.59 -46.57L45.01 -44.67ZM74.85 -59.63L74.93 -59.81L75.12 -59.88L75.52 -60.23L75.86 -60.94L75.93 -61.24L75.93 -61.95L76.79 -63.79L76.83 -63.68L76.83 -59.33L74.85 -55.08L74.85 -53.66L76.83 -57.91L76.83 -53.36L74.85 -49.11ZM75.69 -63.12L75.53 -63.3L76.07 -63.67L75.74 -62.97ZM-14 -45.59L-13.07 -49.63L-13.07 -47.22L-10.26 -49.09L-10.26 -52.83L-12.7 -51.21L-10.63 -60.14L-9.4 -62.78L-7.2 -57.65L-9.66 -52.38L-9.66 -50.96L-6.88 -56.91L-5.94 -54.72L-10.2 -45.59L-12.17 -45.59L-11.14 -47.78L-12.1 -47.14L-12.83 -45.59ZM68.36 -47.71L68.36 -60.14L68.29 -60.44L68.2 -60.62L67.8 -60.98L67.34 -61.19L67.28 -61.36L67.28 -62.17L67.42 -62.47L67.59 -62.53L74.17 -62.53L74.47 -62.38L74.53 -62.21L74.53 -61.4L74.38 -61.1L73.86 -60.89L73.51 -60.49L73.45 -60.19L73.45 -47.71ZM-63.23 -56.9L-73.61 -62.41L-74.18 -62.04L-62.52 -55.84ZM6.31 -61.37L6.35 -61.76L7.03 -61.55L7.01 -61.37ZM29.3 -59.77L29.26 -60L29.07 -60.56L28.9 -60.75L29.76 -61.33L30.06 -61.38L30.12 -61.34L30.2 -61.12L30.2 -60.92L29.3 -59ZM10.41 -59.77L10.37 -60L10.18 -60.56L10.01 -60.75L10.88 -61.33L11.17 -61.38L11.23 -61.34L11.31 -61.12L11.31 -60.92L10.41 -59ZM63.31 -47.71L64.17 -48.57L63.04 -48.57L65.95 -60.91L66.11 -60.45L66.22 -60.33L66.4 -59.93L65.02 -56.98L64.34 -54.1L66.71 -59.19L66.96 -58.61L66.96 -55.83L65.87 -53.51L66.13 -53.47L66.46 -53.34L66.96 -54.41L66.96 -50.51L65.62 -49.17L66.96 -49.17L66.96 -48.57L65.62 -48.57L66.48 -47.71L65.64 -47.71L65.2 -48.15L65.2 -47.71L64.6 -47.71L64.6 -48.15L64.16 -47.71ZM-11.45 -52.76L-8.14 -59.85L-8.46 -60.59L-12.41 -52.12ZM-82.57 -55.75L-82.69 -55.93L-82.73 -56.26L-82.62 -56.41L-81.33 -57.27L-55.26 -43.4L-54.69 -43.78L-80.76 -57.65L-76.56 -60.45L-59.49 -51.37L-54.57 -44.31L-54.52 -43.97L-54.63 -43.82L-57.07 -42.19ZM21.73 -45.15L21.73 -57.58L21.66 -57.88L21.57 -58.07L21.17 -58.43L20.71 -58.63L20.65 -58.8L20.65 -59.61L20.79 -59.91L20.97 -59.97L27.54 -59.97L27.84 -59.83L27.9 -59.65L27.9 -58.85L27.75 -58.55L27.24 -58.33L26.88 -57.93L26.82 -57.64L26.82 -45.15ZM2.84 -45.15L2.84 -57.58L2.77 -57.88L2.69 -58.07L2.29 -58.43L1.82 -58.63L1.76 -58.8L1.76 -59.61L1.91 -59.91L2.08 -59.97L8.65 -59.97L8.95 -59.83L9.01 -59.65L9.01 -58.85L8.87 -58.55L8.35 -58.33L7.99 -57.93L7.93 -57.64L7.93 -45.15ZM9.33 -45.15L9.33 -57.23L9.6 -57.32L9.65 -57.36L9.33 -56.68L9.33 -55.26L11.31 -59.5L11.31 -54.95L9.33 -50.71L9.33 -49.29L11.31 -53.53L11.31 -48.98L9.52 -45.15ZM28.22 -45.15L28.22 -57.23L28.49 -57.32L28.54 -57.36L28.22 -56.68L28.22 -55.26L30.2 -59.5L30.2 -54.95L28.22 -50.71L28.22 -49.29L30.2 -53.53L30.2 -48.98L28.41 -45.15ZM-57.11 -47.93L-78.38 -59.23L-78.94 -58.86L-56.36 -46.85ZM1.44 -45.54L1.02 -45.59L1.02 -57.46L1.44 -57.26ZM20.32 -57.26L20.33 -51.24L18.53 -51.24ZM-95.41 -4.69L-95.71 -4.83L-95.77 -5.01L-95.77 -33.52L-95.84 -33.82L-95.92 -34L-96.32 -34.36L-96.62 -34.42L-97.28 -34.42L-97.57 -34.55L-97.59 -34.61L-97.53 -34.84L-92.7 -41.78L-88.86 -47.47L-84.08 -54.78L-83.9 -54.92L-83.79 -54.92L-83.61 -54.78L-78.82 -47.46L-74.98 -41.78L-70.18 -34.86L-70.12 -34.55L-70.16 -34.5L-70.37 -34.42L-71.02 -34.42L-71.32 -34.35L-71.5 -34.26L-71.86 -33.86L-71.92 -33.57L-71.92 -27.33L-79.03 -19.14L-85.64 -11.77L-85.76 -11.57L-86 -11.03L-86.03 -10.57L-85.87 -10L-85.52 -9.56L-84.78 -9.17L-84.45 -9.09L-84.34 -9.09L-84.34 -4.69ZM-79.74 -51.39L-81.91 -54.72L-57.64 -41.81L-59.46 -40.6ZM-9.54 -45.59L-5.63 -53.98L-4.69 -51.78L-7.58 -45.59ZM64.6 -52.99L64.06 -52.92L63.53 -50.66L64.6 -49.59ZM66.96 -51.35L66.96 -52.48L65.97 -52.89L65.2 -52.99L65.2 -49.59ZM74.85 -47.71L76.83 -51.94L76.83 -47.71ZM-68.52 -34.94L-69.91 -36.91L-67.18 -35.46L-66.61 -35.84L-70.67 -37.99L-76.1 -45.91L-62.41 -38.64L-61.84 -39.01L-76.81 -46.97L-79.05 -50.34L-60.02 -40.23L-64.22 -37.42L-73.79 -42.51L-73.05 -41.44L-64.79 -37.05L-68.05 -34.88L-68.37 -34.83ZM-6.92 -45.59L-4.37 -51.04L-4.29 -50.73L-4.29 -47.01L-4.95 -45.59ZM16.72 -45.15L18.35 -50.64L20.33 -50.64L20.33 -45.15ZM63.37 -49.97L63.18 -49.17L64.17 -49.17ZM10.18 -45.15L11.31 -47.56L11.31 -45.15ZM29.07 -45.15L30.2 -47.56L30.2 -45.15ZM73.68 -37.8L75.1 -42.62L75.12 -42.85L75.09 -43.44L74.92 -43.87L74.53 -44.32L74.19 -44.53L73.56 -44.67L46.47 -44.67L46.9 -46.06L47.01 -46.23L47.23 -46.31L91.64 -46.31L91.78 -46.27L91.87 -46.17L91.89 -45.94L90.52 -40.76L76.1 -40.76L75.03 -42.39L74.51 -40.63L75.23 -39.53L74.42 -37.8ZM-39.32 -20.05L-39.33 -20.61L-39.43 -20.95L-39.69 -21.35L-40.26 -21.97L-38.12 -28.34L-36.13 -34.74L-34.24 -41.34L-33.55 -43.93L-33.43 -44.11L-33.2 -44.19L1.09 -44.19L1.22 -44.15L1.32 -44.05L1.34 -43.82L0.15 -38.99L-34.9 -38.99L-35.07 -38.39L0 -38.39L-1.31 -32.8L-36.72 -32.8L-36.91 -32.2L-1.45 -32.2L-2.68 -26.6L-38.69 -26.6L-38.89 -26L-2.81 -26L-3.98 -20.33L-4.11 -20.12L-4.32 -20.05ZM6.98 -32.37L2.48 -42.63L2.73 -43.6L2.74 -43.75L13.63 -43.75L11.63 -38.56L4.26 -38.56L4.53 -37.96L11.4 -37.96L9.27 -32.37ZM8.28 -20.33L8.28 -25.86L14.84 -43.05L14.94 -43.19L15.18 -43.27L73.47 -43.27L73.62 -43.23L73.71 -43.13L73.72 -42.91L72.39 -38.38L13.06 -38.38L12.83 -37.78L72.21 -37.78L70.65 -32.48L10.81 -32.48L10.58 -31.88L70.48 -31.88L68.92 -26.59L8.56 -26.59L8.33 -25.99L68.74 -25.99L67.15 -20.58L67.04 -20.41L66.81 -20.33ZM91.64 -39.48L92.56 -43.03L92.94 -42.27ZM-81.68 -43.04L-86.01 -43.04L-86.01 -38.72L-81.68 -38.72ZM84.38 -6.16L84.3 -6.38L84.3 -16.36L84.59 -16.98L85.59 -16.98L85.82 -17.02L86.38 -17.21L86.78 -17.57L87.12 -18.27L87.19 -18.58L87.19 -21.56L87.68 -23.6L89.05 -26.54L88.52 -26.83L88.37 -26.48L89.12 -29.55L89.12 -27.18L92.09 -29.16L92.09 -33.12L89.59 -31.46L90.82 -36.31L93.28 -41.58L94.36 -39.36L91.66 -33.55L92.06 -33.82L92.37 -33.66L94.7 -38.67L95.79 -36.46L92.69 -29.81L92.69 -28.84L92.04 -28.4L84.3 -11.81L84.3 -10.39L96.13 -35.77L97.22 -33.55L84.44 -6.12ZM-5.35 6.58L-5.43 6.36L-5.43 -18.65L-4.2 -18.65L-3.97 -18.69L-3.65 -18.8L-5.43 -14.99L-5.43 -13.57L0.76 -26.84L-0.2 -26.2L-2.26 -21.77L-1.35 -26.15L1.61 -28.13L1.61 -32.31L-0.27 -31.06L1.93 -40.4L2.68 -38.68L0.31 -33.6L-0.08 -31.91L0.3 -32.16L3 -37.95L4.11 -35.43L2.21 -31.37L2.21 -29.95L4.43 -34.7L5.53 -32.18L-5.43 -8.68L-5.43 -7.26L5.85 -31.45L6.83 -29.21L6.88 -28.99L6.88 -28.77L-5.43 -2.37L-5.43 -0.95L6.88 -27.35L6.88 -22.46L-5.43 3.93L-5.43 5.36L6.88 -21.04L6.88 -16.15L-3.14 5.33L-4.99 6.57L-5.29 6.62ZM-59.38 -38.98L-56.78 -40.71L-56.78 -40L-58.27 -36.79L-57.31 -37.43L-56.78 -38.58L-56.78 -37.79L-61.35 -34.74ZM83.36 -34.2L83.36 -36.4L84.59 -36.4L84.59 -37.8L78.03 -37.8L76.49 -40.16L90.36 -40.16L88.84 -34.2ZM-41.22 -39.14L-46.32 -39.14L-46.32 -34.04L-41.22 -34.04ZM75.08 -37.8L75.61 -38.94L76.36 -37.8ZM-63.41 -36.28L-60.34 -38.34L-62.31 -34.1L-65.39 -32.05ZM-45.67 -16.84L-67.93 -28.67L-60.94 -33.33L-44.52 -24.61L-45.69 -25.9L-60.37 -33.71L-55.9 -36.69L-54.43 -35.91L-50.7 -31.59L-57.85 -35.39L-58.42 -35.01L-49.59 -30.32L-40.73 -20.39L-40.73 -20.25L-62.89 -32.03L-63.45 -31.65L-41.2 -19.82L-43.15 -18.52L-65.41 -30.35L-65.97 -29.97L-43.72 -18.14ZM72.41 -33.48L73.27 -36.4L73.77 -36.4ZM80.37 -34.2L78.94 -36.4L82.77 -36.4L82.77 -34.2ZM65.67 6.18L65.64 6.08L65.64 -17.55L66.28 -18.93L66.93 -18.93L67.16 -18.97L67.72 -19.16L68.07 -19.43L68.38 -19.89L68.47 -20.08L71.28 -29.63L74.43 -36.4L76.71 -36.4L65.64 -12.66L65.64 -11.24L77.33 -36.31L78.66 -34.27L65.64 -6.35L65.64 -4.93L79.04 -33.68L80.37 -31.64L65.64 -0.04L65.64 1.38L80.69 -30.9L80.69 -26.01L79.88 -24.28L79.75 -24.24L79.35 -23.88L79.01 -23.17L78.94 -22.87L78.94 -22.26ZM-67.45 -33.61L-64.38 -35.64L-66.35 -31.4L-69.43 -29.35ZM-70.52 -28.63L-70.5 -33.02L-70.25 -33.02L-70.03 -33.06L-69.47 -33.25L-69.11 -33.54L-69.06 -33.6L-68.95 -33.52L-68.44 -33.4L-68.19 -33.44L-70.39 -28.71ZM82.09 -27.65L82.09 -31.09L82.06 -31.29L81.91 -31.78L81.83 -31.97L80.76 -33.6L82.77 -33.6L82.77 -27.65ZM85.9 -24.4L85.59 -24.47L83.36 -24.47L83.36 -27.05L87.06 -27.05L87.21 -27.65L83.36 -27.65L83.36 -33.6L88.69 -33.6L86.37 -24.17ZM97.56 -32.86L98.41 -31.13L98.47 -30.88L98.47 -30.26L88.37 -8.6L85.29 -6.54ZM8.19 -29.56L7.24 -31.77L9.04 -31.77ZM-87.27 -31.05L-93.04 -31.05L-93.04 -25.29L-87.27 -25.29ZM-74.65 -31.05L-80.42 -31.05L-80.42 -25.29L-74.65 -25.29ZM89.33 -9.24L98.47 -28.84L98.47 -24.29L92.41 -11.29ZM-42.45 -24.39L-45.6 -27.92L-45.39 -28.39L-43.41 -28.39L-44.28 -26.43L-43.62 -25.7L-42.42 -28.39L-40.44 -28.39L-41.83 -25.26ZM-55.07 -10.92L-57.14 -13.2L-53.8 -11.42L-53.23 -11.8L-58.32 -14.51L-62.28 -18.95L-51.27 -13.1L-50.71 -13.48L-63.41 -20.23L-67.2 -24.59L-48.76 -14.78L-48.19 -15.16L-68.29 -25.85L-69.54 -27.34L-69.55 -27.5L-69.41 -27.69L-68.49 -28.3L-46.24 -16.46L-54.62 -10.87L-54.88 -10.82ZM82.09 -24.47L82.09 -27.05L82.77 -27.05L82.77 -24.47ZM-82.58 8.55L-82.88 8.41L-82.94 8.23L-82.94 -9.58L-83 -9.89L-83.09 -10.07L-83.49 -10.43L-83.79 -10.49L-84.28 -10.49L-84.6 -10.66L-84.61 -10.7L-84.52 -10.91L-77.98 -18.21L-70.86 -26.39L-70.71 -26.41L-70.51 -26.29L-63.5 -18.21L-56.99 -10.95L-56.9 -10.6L-56.92 -10.56L-57.14 -10.49L-57.63 -10.49L-57.94 -10.42L-58.12 -10.33L-58.48 -9.93L-58.54 -9.64L-58.54 8.19L-58.68 8.49L-58.86 8.55L-73.38 8.55L-73.38 -0.27L-73.56 -1.45L-74.11 -2.51L-74.95 -3.35L-76.01 -3.89L-77.19 -4.08L-78.36 -3.89L-79.42 -3.35L-80.27 -2.51L-80.81 -1.45L-81 -0.27L-81 8.55ZM-41.48 -23.32L-41.07 -23.91L-41.33 -23.16ZM80.63 -24.47L80.69 -24.59L80.69 -24.47ZM80.7 -18.38L80.4 -18.52L80.34 -18.69L80.34 -22.71L80.48 -23.01L80.66 -23.07L85.43 -23.07L85.73 -22.93L85.79 -22.75L85.79 -18.73L85.65 -18.44L85.47 -18.38ZM93.37 -11.93L98.47 -22.87L98.47 -18.32L96.45 -13.98ZM66.39 6.07L78.94 -20.84L78.94 -18.58L78.98 -18.35L79.17 -17.79L79.53 -17.39L79.59 -17.36L69.7 3.87L70.66 3.23L80.14 -17.09L80.54 -16.98L80.69 -16.98L80.69 -13.4L73.97 1.02L74.93 0.38L80.69 -11.98L80.69 -7.09L78.23 -1.82ZM8.88 7.18L8.58 7.04L8.52 6.86L8.52 -18.93L64.24 -18.93L64.24 6.82L64.09 7.12L63.92 7.18L56.37 7.18L56.37 -5.21L51.01 0.73L51.01 7.18L50.31 7.18L50.31 1.51L45.21 7.16L44.95 6.93L44.95 7.18L27.81 7.18L27.81 -5.21L22.45 0.73L22.45 7.18L21.75 7.18L21.75 1.51L16.65 7.16L16.39 6.93L16.39 7.18ZM-38.21 7.46L-38.51 7.32L-38.57 7.15L-38.57 -18.65L-6.83 -18.65L-6.83 7.11L-6.97 7.4L-7.14 7.46L-8.23 7.46L-8.23 -1.26L-8.39 -2.32L-8.88 -3.28L-9.64 -4.03L-10.59 -4.52L-11.65 -4.69L-12.71 -4.52L-13.66 -4.03L-14.42 -3.28L-14.91 -2.32L-15.07 -1.26L-15.07 7.46ZM-41.66 -17.83L-40.82 -18.39L-40.7 -18.16L-40.45 -17.93L-40.45 -17.32L-41.66 -14.73ZM-68.45 -18.29L-73.02 -18.29L-73.02 -13.72L-68.45 -13.72ZM-8.89 -17.61L-14.41 -17.61L-14.41 -12.09L-8.89 -12.09ZM-19.94 -17.61L-25.46 -17.61L-25.46 -12.09L-19.94 -12.09ZM-30.98 -17.61L-36.51 -17.61L-36.51 -12.09L-30.98 -12.09ZM24.57 -17.55L19.62 -17.55L19.62 -12.6L24.57 -12.6ZM53.13 -17.55L48.18 -17.55L48.18 -12.6L53.13 -12.6ZM82.09 -5.28L82.09 -16.98L82.9 -16.98L82.9 -5.63L82.76 -5.34L82.58 -5.28ZM98.47 -16.9L98.47 -15.61L98.23 -15.17L97.41 -14.62ZM-43.11 -16.86L-43.06 -16.9L-43.06 -12.08L-50.26 3.36L-49.3 2.72L-43.06 -10.66L-43.06 -5.78L-45.99 0.51L-45.03 -0.13L-43.06 -4.36L-43.06 -1.73L-43.3 -1.28L-53.57 5.56ZM-57.06 7.67L-57.14 7.45L-57.14 -9.09L-56.79 -9.13L-56.23 -9.32L-56.05 -9.47L-57.14 -7.12L-57.14 -5.7L-55.37 -9.49L-54.84 -9.39L-54.19 -9.53L-53.95 -9.64L-52.61 -10.53L-57.14 -0.82L-57.14 0.6L-51.65 -11.17L-48.34 -13.38L-57.14 5.49L-57.14 6.91L-47.38 -14.02L-44.07 -16.22L-54.53 6.2L-56.71 7.66L-57 7.71ZM-87.27 -16.24L-93.04 -16.24L-93.04 -10.48L-87.27 -10.48ZM-40.45 -15.9L-40.45 -15.76L-40.69 -15.32L-40.74 -15.28ZM6.88 -14.73L6.88 -9.85L1.13 2.48L-2.17 4.69ZM6.88 -8.43L6.88 -3.54L5.4 -0.36L2.09 1.84ZM56.11 -5.97L56.37 -5.73L56.37 -6.68L51.01 -6.68L51.01 -0.31ZM27.55 -5.97L27.81 -5.73L27.81 -6.68L22.45 -6.68L22.45 -0.31ZM21.75 0.46L21.75 -6.68L16.39 -6.68L16.39 6.41ZM50.31 0.46L50.31 -6.68L44.95 -6.68L44.95 6.41ZM80.69 -5.67L80.69 -3.74L80.45 -3.3L79.19 -2.46ZM-61.24 -3.7L-67.33 -3.7L-67.33 2.4L-61.24 2.4ZM-19.94 -3.53L-25.46 -3.53L-25.46 2L-19.94 2ZM-30.98 -3.53L-36.51 -3.53L-36.51 2L-30.98 2ZM6.88 -2.12L6.88 -1.63L6.65 -1.19L6.36 -1ZM-39.38 8.45L-38.67 8.79L-38.37 8.86L-7.03 8.86L-6.8 8.82L-6.24 8.63L-5.84 8.27L-5.69 7.97L-5.31 8.05L-4.6 7.92L-4.34 7.81L7.12 0.17L7.12 6.98L7.16 7.21L7.35 7.77L7.71 8.17L8.41 8.51L8.72 8.58L64.04 8.58L64.27 8.54L64.83 8.35L65.23 7.99L65.37 7.69L65.76 7.76L66.46 7.64L66.73 7.53L81.38 -2.24L81.61 -2.49L82.01 -3.24L82.09 -3.57L82.09 -3.88L82.7 -3.88L82.93 -3.92L83.49 -4.11L83.89 -4.47L84.03 -4.77L84.42 -4.69L85.12 -4.82L85.39 -4.93L99.16 -14.11L99.39 -14.36L99.79 -15.11L99.87 -15.44L99.85 -31.12L99.71 -31.67L93.11 -45.09L93.27 -45.7L93.3 -45.93L93.25 -46.52L93.07 -46.94L92.67 -47.38L92.32 -47.58L91.73 -47.71L78.22 -47.71L78.22 -63.8L78.19 -64.03L77.99 -64.59L77.71 -64.95L77.21 -65.26L77 -65.31L77.29 -65.6L77.89 -66.39L78.04 -66.67L78.31 -67.32L79.07 -67.23L79.4 -67.23L80.66 -67.41L80.97 -67.5L82.14 -67.98L82.41 -68.15L83.41 -68.93L83.64 -69.16L84.41 -70.17L84.56 -70.45L84.96 -71.4L85.31 -71.31L86.28 -71.19L86.61 -71.2L87.58 -71.33L87.9 -71.42L88.8 -71.8L89.08 -71.97L89.86 -72.58L90.08 -72.81L90.68 -73.6L90.84 -73.88L91.21 -74.79L91.29 -75.11L91.41 -76.08L91.4 -76.41L91.27 -77.38L91.18 -77.7L90.8 -78.6L90.63 -78.88L90.02 -79.66L89.79 -79.89L89 -80.48L88.72 -80.64L87.81 -81.01L87.5 -81.09L86.52 -81.21L86.19 -81.2L85.22 -81.07L84.9 -80.98L84 -80.6L83.72 -80.43L82.94 -79.83L82.71 -79.59L82.05 -78.69L80.88 -79.17L80.56 -79.25L79.31 -79.41L78.98 -79.4L77.73 -79.23L77.42 -79.14L76.25 -78.65L75.97 -78.48L74.97 -77.71L74.74 -77.47L73.98 -76.47L73.82 -76.18L73.34 -75.01L73.26 -74.69L73.16 -73.97L72.42 -73.86L72.11 -73.77L71.2 -73.39L70.93 -73.22L70.15 -72.62L69.92 -72.38L69.33 -71.6L69.17 -71.31L68.8 -70.4L68.72 -70.09L68.6 -69.11L68.6 -68.78L68.74 -67.81L68.83 -67.5L69.21 -66.59L69.38 -66.31L69.98 -65.53L70.22 -65.31L71 -64.71L71.29 -64.55L72.2 -64.18L72.51 -64.11L73.49 -63.98L74.12 -64.03L74.02 -63.93L67.48 -63.93L67.25 -63.89L66.69 -63.69L66.58 -63.6L66.66 -63.93L66.68 -64.16L66.62 -64.75L66.42 -65.17L66.01 -65.59L65.67 -65.78L65.11 -65.9L36.18 -65.9L36.79 -66.37L37.01 -66.61L37.78 -67.61L37.94 -67.9L38.33 -68.85L38.68 -68.76L39.66 -68.64L39.98 -68.64L40.95 -68.78L41.27 -68.86L42.17 -69.25L42.45 -69.41L43.23 -70.02L43.46 -70.25L44.05 -71.04L44.21 -71.33L44.58 -72.23L44.66 -72.55L44.78 -73.53L44.77 -73.86L44.64 -74.83L44.55 -75.14L44.17 -76.05L44 -76.32L43.4 -77.1L43.16 -77.33L42.38 -77.92L42.09 -78.08L41.18 -78.45L40.87 -78.53L39.89 -78.65L39.56 -78.65L38.59 -78.51L38.27 -78.42L37.37 -78.04L37.09 -77.87L36.31 -77.27L36.09 -77.04L35.42 -76.14L34.25 -76.61L33.93 -76.69L32.68 -76.85L32.36 -76.85L31.1 -76.67L30.79 -76.58L29.62 -76.09L29.34 -75.92L28.34 -75.15L28.11 -74.92L27.35 -73.91L27.19 -73.62L26.71 -72.45L26.62 -72.06L26.62 -75L26.59 -75.22L27.27 -75.68L27.45 -75.84L27.8 -76.31L27.94 -76.77L27.91 -77.42L27.85 -77.67L14.66 -106.98L14.53 -107.17L14.12 -107.6L13.67 -107.82L13.67 -108.69L13.72 -108.69L13.72 -112.7L14.12 -112.81L14.84 -113.16L15.45 -113.7L15.89 -114.37L16.15 -115.13L16.2 -115.94L16.04 -116.72L15.69 -117.44L15.15 -118.05L14.48 -118.5L13.71 -118.76L12.92 -118.81L12.12 -118.64L11.4 -118.29L10.8 -117.76L10.35 -117.09L10.09 -116.32L10.04 -115.52L10.2 -114.73L10.56 -114L11.1 -113.4L11.76 -112.96L12.52 -112.7L12.52 -108.69L12.57 -108.69L12.57 -107.75L12.16 -107.52L11.91 -107.27L11.7 -106.89L-1.48 -71.75L-1.52 -71.52L-1.54 -70.93L-1.4 -70.49L-1.04 -70.02L-0.68 -69.77L-0.32 -69.66L-0.38 -69.39L-0.38 -45.59L-2.89 -45.59L-2.9 -50.95L-3.02 -51.44L-9.27 -66.03L-9.8 -63.72L-9.72 -63.52L-9.98 -62.96L-9.07 -66.87L-9.06 -67.1L-9.13 -67.69L-9.32 -68.1L-9.73 -68.53L-10.08 -68.72L-10.63 -68.83L-23.92 -68.83L-23.92 -83.87L-23.96 -84.1L-24.15 -84.66L-24.44 -85.02L-24.94 -85.34L-25.09 -85.37L-24.8 -85.65L-24.25 -86.39L-24.09 -86.67L-23.85 -87.25L-23.16 -87.17L-22.84 -87.17L-21.66 -87.33L-21.35 -87.42L-20.26 -87.88L-19.98 -88.05L-19.04 -88.78L-18.81 -89.01L-18.1 -89.95L-17.94 -90.24L-17.58 -91.09L-17.28 -91.02L-16.36 -90.9L-16.04 -90.91L-15.13 -91.03L-14.82 -91.13L-13.97 -91.48L-13.69 -91.65L-12.96 -92.22L-12.73 -92.45L-12.18 -93.19L-12.02 -93.47L-11.68 -94.32L-11.6 -94.64L-11.48 -95.55L-11.49 -95.88L-11.61 -96.79L-11.7 -97.1L-12.06 -97.95L-12.23 -98.23L-12.79 -98.95L-13.03 -99.18L-13.76 -99.74L-14.05 -99.89L-14.9 -100.24L-15.22 -100.32L-16.13 -100.43L-16.46 -100.43L-17.37 -100.3L-17.68 -100.21L-18.53 -99.85L-18.81 -99.69L-19.53 -99.12L-19.76 -98.89L-20.36 -98.07L-21.44 -98.51L-21.75 -98.58L-22.93 -98.73L-23.26 -98.73L-24.43 -98.57L-24.74 -98.48L-25.84 -98.02L-26.12 -97.85L-27.05 -97.12L-27.28 -96.89L-28 -95.94L-28.16 -95.66L-28.61 -94.56L-28.68 -94.24L-28.77 -93.59L-29.43 -93.5L-29.75 -93.41L-30.6 -93.05L-30.88 -92.89L-31.6 -92.32L-31.83 -92.09L-32.38 -91.35L-32.54 -91.07L-32.89 -90.21L-32.97 -89.9L-33.08 -88.99L-33.08 -88.66L-32.95 -87.75L-32.86 -87.44L-32.5 -86.59L-32.33 -86.31L-31.77 -85.58L-31.53 -85.36L-30.8 -84.8L-30.52 -84.64L-29.66 -84.3L-29.35 -84.22L-28.67 -84.13L-34.05 -84.13L-34.28 -84.09L-34.84 -83.9L-35.24 -83.54L-35.58 -82.83L-35.65 -82.53L-35.65 -81.61L-35.61 -81.38L-35.41 -80.82L-35.06 -80.42L-34.63 -80.21L-34.63 -68.83L-52.49 -68.83L-52.72 -68.79L-53.28 -68.6L-53.63 -68.33L-53.93 -67.88L-54.02 -67.69L-58.58 -52.52L-57.56 -51.04L-56.56 -54.37L-13.41 -54.37L-14.83 -48.23L-55.62 -48.23L-55.2 -47.63L-14.97 -47.63L-15.44 -45.59L-33.32 -45.59L-33.55 -45.55L-34.11 -45.35L-34.47 -45.08L-34.78 -44.6L-34.87 -44.4L-36.52 -38.39L-38.45 -31.92L-39.22 -29.5L-39.72 -29.73L-40.01 -29.79L-47.26 -29.79L-51.42 -34.56L-51.42 -39.14L-55.38 -39.14L-55.38 -39.82L-36.12 -39.82L-35.73 -41.22L-55.38 -41.22L-55.38 -41.64L-53.75 -42.72L-53.58 -42.88L-53.23 -43.36L-53.09 -43.88L-53.21 -44.68L-53.33 -44.98L-58.68 -52.67L-62.51 -58.34L-67.61 -66.14L-67.77 -66.31L-68.24 -66.68L-68.76 -66.82L-69.55 -66.72L-69.85 -66.6L-84.19 -57.03L-84.53 -56.65L-90.03 -48.24L-97.76 -36.93L-98.74 -35.54L-98.84 -35.33L-99.01 -34.77L-98.98 -34.3L-98.75 -33.76L-98.39 -33.39L-97.72 -33.08L-97.43 -33.02L-97.17 -33.02L-97.17 -4.89L-97.13 -4.66L-96.93 -4.1L-96.58 -3.7L-95.87 -3.36L-95.57 -3.29L-84.34 -3.29L-84.34 8.35L-84.3 8.58L-84.1 9.14L-83.75 9.54L-83.04 9.88L-82.74 9.95L-58.74 9.95L-58.51 9.91L-57.95 9.72L-57.55 9.36L-57.4 9.06L-57.02 9.13L-56.32 9.01L-56.05 8.9L-42.37 -0.22L-42.15 -0.47L-41.74 -1.22L-41.66 -1.55L-41.66 -11.1L-41.41 -11.32L-41.05 -11.79L-40.91 -12.23L-40.93 -12.82L-41.06 -13.22L-41.15 -13.33L-39.97 -14.12L-39.97 -10.31L-40.25 -9.9L-40.39 -9.44L-40.38 -4.38L-40.15 -3.82L-39.97 -3.59L-39.97 6.09L-43.31 5.77L-47.54 5.08L-49.59 4.59L-51.18 5.65L-47.75 6.47L-43.41 7.17L-39.93 7.49L-39.73 8.05Z"/>
</svg>
