<svg xmlns="http://www.w3.org/2000/svg" viewBox="-39.22 -59.73 92.48 62.43" data-palette="wall:#EFEADF;roof:#D9776B;wood:#C9A97C;earth:#94744F;water:#8FB0B8;flag:#4A3B32;ink:#3B2F28;halo:#F4EFE4"><!--"viking longhouse" — Iron Ledger settlement kit-->
  <path data-role="sil" fill="#F4EFE4" stroke="#F4EFE4" stroke-width="3" stroke-linejoin="round" d="M33.33 0.66L33.89 0.47L34.29 0.11L34.44 -0.19L34.82 -0.12L35.52 -0.24L35.79 -0.35L50.55 -10.19L50.78 -10.44L51.18 -11.19L51.26 -11.52L51.25 -24.01L51.18 -24.39L44.05 -46.73L44.42 -48.66L44.43 -48.89L44.34 -49.48L44.13 -49.89L43.7 -50.29L43.46 -50.4L43.96 -51L48.74 -45.23L49.15 -45.03L49.57 -45.22L49.71 -45.65L49.58 -45.94L44.67 -51.87L48.78 -56.83L48.9 -57.28L48.64 -57.66L48.19 -57.71L47.94 -57.53L43.96 -52.73L39.98 -57.53L39.57 -57.73L39.15 -57.55L39.01 -57.11L39.14 -56.83L43.25 -51.87L42.1 -50.49L34.98 -49.71L26.06 -49.02L17.19 -48.6L8.28 -48.47L-0.63 -48.6L-9.52 -49.02L-18.45 -49.71L-21.85 -50.08L-23.33 -51.87L-19.22 -56.83L-19.1 -57.28L-19.36 -57.66L-19.81 -57.71L-20.06 -57.53L-24.04 -52.73L-28.02 -57.53L-28.43 -57.73L-28.85 -57.55L-28.99 -57.11L-28.86 -56.83L-24.75 -51.87L-25.87 -50.52L-26.54 -50.59L-26.78 -50.58L-27.35 -50.45L-27.76 -50.18L-28.16 -49.63L-28.27 -49.39L-28.9 -46.86L-29.66 -45.94L-29.78 -45.49L-29.52 -45.11L-29.34 -45.09L-37.2 -13.49L-37.22 -13.25L-37.17 -12.66L-36.98 -12.24L-36.57 -11.82L-36.23 -11.62L-35.65 -11.5L-34.7 -11.5L-34.7 -0.9L-34.66 -0.67L-34.47 -0.11L-34.11 0.29L-33.4 0.63L-33.1 0.7L33.1 0.7ZM-24.56 -50.38L-24.04 -51L-23.42 -50.26Z"/>
  <path data-role="wall" fill="#EFEADF" d="M33.66 -0.19L34 -0.9L34 -11.5L-34 -11.5L-34 -0.9L-33.81 -0.34L-33.1 0L33.1 0Z"/>
  <path data-role="wall-shade" fill="#cbc5ba" d="M35.4 -0.93L50.16 -10.77L50.56 -11.52L50.56 -23.9L50.52 -24.18L43.78 -45.28L37.63 -12.8L37.54 -12.57L37.21 -12.03L36.84 -11.73L36.28 -11.54L36.05 -11.5L34.7 -11.5L34.69 -0.81Z"/>
  <path data-role="roof" fill="#D9776B" d="M36.61 -12.39L36.94 -12.93L43.73 -48.79L43.65 -49.38L43.22 -49.78L42.75 -49.85L35.04 -49.01L26.1 -48.32L17.2 -47.9L8.28 -47.77L-0.64 -47.9L-9.57 -48.32L-18.5 -49.02L-26.62 -49.9L-27.2 -49.77L-27.59 -49.22L-36.52 -13.32L-36.47 -12.73L-36.06 -12.3L-35.65 -12.2L36.05 -12.2Z"/>
  <path data-role="ink" fill="#3B2F28" d="M34.7 -9.31L35.72 -11.5L36.05 -11.5L36.28 -11.54L36.84 -11.73L37.21 -12.03L37.54 -12.57L37.63 -12.8L43.51 -43.84L43.69 -43.27L43.2 -42.22L42.75 -39.82L43.96 -42.42L46.2 -35.4L42.04 -26.48L43.01 -27.13L46.47 -34.55L47.46 -31.46L43.7 -23.41L43.7 -21.99L47.73 -30.62L48.71 -27.53L37.29 -3.03L38.25 -3.67L48.98 -26.69L49.83 -24.02L49.86 -23.37L41.77 -6.02L35.13 -1.6L34.84 -1.54L34.77 -1.58L34.7 -1.8L34.7 -11.5L35.06 -11.5L34.7 -10.73ZM-24.56 -50.38L-24.04 -51L-23.42 -50.26ZM-35.57 -12.9L-35.7 -12.93L-35.79 -13.04L-35.81 -13.26L-27.45 -46.88L-25.63 -49.09L-22.14 -48.71L-19.26 -45.23L-18.85 -45.03L-18.43 -45.22L-18.29 -45.65L-18.42 -45.94L-20.57 -48.54L-18.53 -48.31L-9.57 -47.62L-0.65 -47.2L8.29 -47.06L17.23 -47.2L26.18 -47.62L35.14 -48.32L40.82 -48.94L38.34 -45.94L38.22 -45.49L38.48 -45.11L38.93 -45.06L39.18 -45.23L42.39 -49.11L42.74 -49.15L42.89 -49.12L42.99 -49.03L43.02 -48.81L36.27 -13.19L36.15 -12.97L35.94 -12.9ZM41.55 -41.04L-28.91 -41.04L-29.05 -40.44L41.44 -40.44ZM45.21 -38.49L44.95 -39.33L41.09 -31.06L40.63 -28.66ZM39.8 -31.79L-31.2 -31.79L-31.35 -31.19L39.69 -31.19ZM43.1 -22.07L43.1 -26.47L39.8 -24.27L39.8 -19.87ZM38.05 -22.55L-33.51 -22.55L-33.65 -21.95L37.93 -21.95ZM49.86 -21.95L49.86 -16.74L46.25 -9.01L42.73 -6.66ZM43.53 -21.64L42.57 -21L34.7 -4.11L34.7 -2.69ZM39.4 -19.4L39.2 -19.51L39.2 -20.39L38.97 -19.89L38.52 -17.5ZM49.86 -15.32L49.86 -11.7L49.63 -11.26L47.22 -9.65ZM-32.94 -0.7L-33.24 -0.84L-33.3 -1.02L-33.3 -11.5L33.3 -11.5L33.3 -1.06L33.16 -0.76L32.98 -0.7L-23.2 -0.7L-23.2 -5.75L-23.4 -6.99L-23.96 -8.1L-24.85 -8.99L-25.96 -9.55L-27.2 -9.75L-28.44 -9.55L-29.55 -8.99L-30.44 -8.1L-31 -6.99L-31.2 -5.75L-31.2 -0.7ZM30.4 -11.08L24 -11.08L24 -4.68L30.4 -4.68ZM16.8 -11.08L10.4 -11.08L10.4 -4.68L16.8 -4.68ZM3.2 -11.08L-3.2 -11.08L-3.2 -4.68L3.2 -4.68ZM-10.4 -11.08L-16.8 -11.08L-16.8 -4.68L-10.4 -4.68ZM34.82 -0.12L35.52 -0.24L35.79 -0.35L50.55 -10.19L50.78 -10.44L51.18 -11.19L51.26 -11.52L51.25 -24.01L51.18 -24.39L44.05 -46.73L44.42 -48.66L44.43 -48.89L44.34 -49.48L44.13 -49.89L43.7 -50.29L43.46 -50.4L43.96 -51L48.74 -45.23L49.15 -45.03L49.57 -45.22L49.71 -45.65L49.58 -45.94L44.67 -51.87L48.78 -56.83L48.9 -57.28L48.64 -57.66L48.19 -57.71L47.94 -57.53L43.96 -52.73L39.98 -57.53L39.57 -57.73L39.15 -57.55L39.01 -57.11L39.14 -56.83L43.25 -51.87L42.1 -50.49L34.98 -49.71L26.06 -49.02L17.19 -48.6L8.28 -48.47L-0.63 -48.6L-9.52 -49.02L-18.45 -49.71L-21.85 -50.08L-23.33 -51.87L-19.22 -56.83L-19.1 -57.28L-19.36 -57.66L-19.81 -57.71L-20.06 -57.53L-24.04 -52.73L-28.02 -57.53L-28.43 -57.73L-28.85 -57.55L-28.99 -57.11L-28.86 -56.83L-24.75 -51.87L-25.87 -50.52L-26.54 -50.59L-26.78 -50.58L-27.35 -50.45L-27.76 -50.18L-28.16 -49.63L-28.27 -49.39L-28.9 -46.86L-29.66 -45.94L-29.78 -45.49L-29.52 -45.11L-29.34 -45.09L-37.2 -13.49L-37.22 -13.25L-37.17 -12.66L-36.98 -12.24L-36.57 -11.82L-36.23 -11.62L-35.65 -11.5L-34.7 -11.5L-34.7 -0.9L-34.66 -0.67L-34.47 -0.11L-34.11 0.29L-33.4 0.63L-33.1 0.7L33.1 0.7L33.33 0.66L33.89 0.47L34.29 0.11L34.44 -0.19Z"/>
</svg>
