<svg xmlns="http://www.w3.org/2000/svg" viewBox="-115.19 -201.54 230.26 238.1" data-palette="wall:#D9CBB0;roof:#9A7B58;wood:#7D6448;earth:#7E7458;water:#8FB0BC;ink:#2F2A24;flag:#5C4A3A;halo:#F2EDE2"><!--"Giants city" — Iron Ledger settlement kit, generated by apps/web/scripts/build-settlement-icons.mjs-->
  <path data-role="sil" fill="#F2EDE2" stroke="#F2EDE2" stroke-width="3" stroke-linejoin="round" d="M1.16 34.51L3.49 34.35L5.74 34.09L7.88 33.73L9.87 33.28L11.69 32.74L13.29 32.12L14.67 31.42L15.79 30.64L16.66 29.78L17.22 28.81L17.41 27.83L17.41 10.63L18.38 10.23L19.76 9.47L20.81 8.62L21.5 7.67L21.5 17L79.12 17L79.34 17.12L79.51 17L79.99 17L79.99 16.68L102.25 1.59L102.25 -6.29L113.07 -13.62L113.07 -37.03L101.63 -99.43L102.66 -107.48L108.5 -100.42L108.92 -100.22L109.34 -100.4L109.47 -100.84L109.35 -101.12L102.57 -109.31L108.26 -116.19L108.38 -116.64L108.12 -117.01L107.67 -117.07L107.42 -116.89L105.38 -114.43L105.32 -114.56L98.54 -122.75L104.24 -129.63L104.35 -130.08L104.1 -130.46L103.64 -130.51L103.39 -130.34L97.83 -123.62L92.27 -130.34L91.86 -130.54L91.44 -130.35L91.3 -129.92L91.42 -129.63L97.11 -122.75L95.57 -120.89L94.94 -120.88L94.84 -120.22L87.75 -118.59L77.85 -116.97L67.94 -115.99L58.05 -115.67L51.18 -115.89L44.78 -142.53L45.79 -148.94L19.95 -148.94L19.95 -176L19.35 -176.32L20.49 -177.81L21.1 -179.29L22.66 -179.09L24.95 -179.39L27.09 -180.27L28.92 -181.68L30.33 -183.52L31.16 -185.52L31.66 -185.31L33.53 -185.07L35.41 -185.31L37.15 -186.04L38.65 -187.19L39.8 -188.69L40.52 -190.43L40.77 -192.3L40.52 -194.18L39.8 -195.92L38.65 -197.42L37.15 -198.57L35.41 -199.29L33.53 -199.54L31.66 -199.29L29.92 -198.57L28.42 -197.42L27.27 -195.92L27.13 -195.59L24.95 -196.51L22.66 -196.82L20.36 -196.51L18.22 -195.63L16.39 -194.22L14.98 -192.38L14.09 -190.25L13.88 -188.61L12.35 -188.41L10.61 -187.69L9.11 -186.54L7.96 -185.04L7.24 -183.29L6.99 -181.42L7.24 -179.55L7.96 -177.81L9.11 -176.31L10.61 -175.16L12.35 -174.44L14.22 -174.19L16.1 -174.44L16.68 -174.68L14.82 -173.42L2.92 -173.42L2.92 -167.67L4.55 -167.67L4.55 -148.94L-23.14 -148.94L-22.25 -149.62L-20.84 -151.46L-20.01 -153.46L-19.51 -153.25L-17.64 -153.01L-15.77 -153.25L-14.02 -153.98L-12.53 -155.13L-11.38 -156.63L-10.65 -158.37L-10.41 -160.24L-10.65 -162.11L-11.38 -163.86L-12.53 -165.36L-14.02 -166.51L-15.77 -167.23L-17.64 -167.48L-19.51 -167.23L-21.26 -166.51L-22.76 -165.36L-23.91 -163.86L-24.04 -163.53L-26.23 -164.45L-28.52 -164.76L-30.82 -164.45L-32.95 -163.57L-34.79 -162.16L-36.2 -160.32L-37.09 -158.19L-37.3 -156.55L-38.83 -156.35L-40.57 -155.63L-42.07 -154.48L-43.22 -152.98L-43.94 -151.23L-44.19 -149.36L-43.94 -147.49L-43.22 -145.75L-42.07 -144.25L-40.57 -143.1L-38.83 -142.37L-36.95 -142.13L-35.08 -142.37L-34.49 -142.62L-36.35 -141.36L-48.26 -141.36L-48.26 -135.61L-46.63 -135.61L-46.63 -116.88L-63.86 -116.88L-63.86 -143.94L-64.47 -144.26L-63.33 -145.75L-62.71 -147.23L-61.16 -147.02L-58.87 -147.33L-56.73 -148.21L-54.89 -149.62L-53.48 -151.46L-52.65 -153.46L-52.15 -153.25L-50.28 -153.01L-48.41 -153.25L-46.66 -153.98L-45.17 -155.13L-44.02 -156.63L-43.29 -158.37L-43.05 -160.24L-43.29 -162.11L-44.02 -163.86L-45.17 -165.36L-46.66 -166.51L-48.41 -167.23L-50.28 -167.48L-52.15 -167.23L-53.9 -166.51L-55.4 -165.36L-56.55 -163.86L-56.68 -163.53L-58.87 -164.45L-61.16 -164.76L-63.46 -164.45L-65.59 -163.57L-67.43 -162.16L-68.84 -160.32L-69.72 -158.19L-69.94 -156.55L-71.47 -156.35L-73.21 -155.63L-74.71 -154.48L-75.86 -152.98L-76.58 -151.23L-76.83 -149.36L-76.58 -147.49L-75.86 -145.75L-74.71 -144.25L-73.21 -143.1L-71.47 -142.37L-69.59 -142.13L-67.72 -142.37L-67.13 -142.62L-68.99 -141.36L-80.9 -141.36L-80.9 -135.61L-79.27 -135.61L-79.27 -116.88L-87.18 -116.88L-87.21 -116.93L-87.66 -116.98L-87.81 -116.88L-94.04 -116.88L-95.02 -111.95L-99.04 -116.81L-99.45 -117L-99.87 -116.82L-100.01 -116.39L-99.89 -116.1L-95.3 -110.56L-95.99 -107.05L-96.07 -106.95L-98.62 -107.5L-99.35 -102.99L-100.97 -101.03L-101.09 -100.59L-100.83 -100.21L-100.38 -100.16L-100.13 -100.33L-99.7 -100.84L-113.19 -17.75L-109.26 -17.75L-109.26 4.14L-98.45 4.14L-98.45 15.22L-19.84 15.22L-19.84 27.83L-19.65 28.81L-19.09 29.78L-18.22 30.64L-17.1 31.42L-15.72 32.12L-14.12 32.74L-12.3 33.28L-10.31 33.73L-8.17 34.09L-5.92 34.35L-3.58 34.51L-1.22 34.56ZM-31.22 -143.94L-31.83 -144.26L-30.69 -145.75L-30.07 -147.23L-28.52 -147.02L-26.23 -147.33L-25.73 -147.53L-31.22 -119.96ZM97.83 -121.89L98.51 -121.07L96.83 -120.68ZM97.87 -114.99L98.63 -120.93L104.48 -113.86L104.78 -113.71L101.86 -110.18ZM97.6 -112.87L97.68 -113.5L101.14 -109.31L99.6 -107.45L98.96 -107.44L98.88 -106.88L98.7 -106.84ZM101.86 -108.45L102.56 -107.6L100.88 -107.27ZM20.47 4.05L21.5 4.05L21.5 5.9Z"/>
  <path data-role="wall" fill="#D9CBB0" d="M15.91 -175.12L17.49 -175.77L18.84 -176.81L19.88 -178.16L20.53 -179.73L20.57 -180.06L22.66 -179.79L24.77 -180.07L26.73 -180.88L28.43 -182.18L29.72 -183.87L30.54 -185.84L30.62 -186.5L31.85 -186L33.53 -185.78L35.23 -186L36.8 -186.65L38.15 -187.69L39.19 -189.04L39.84 -190.61L40.06 -192.3L39.84 -193.99L39.19 -195.57L38.15 -196.92L36.8 -197.96L35.23 -198.61L33.53 -198.83L31.85 -198.61L30.27 -197.96L28.92 -196.92L27.88 -195.57L27.43 -194.48L26.73 -195.02L24.77 -195.83L22.66 -196.11L20.54 -195.83L18.57 -195.02L16.89 -193.72L15.59 -192.03L14.77 -190.06L14.5 -187.91L14.22 -187.95L12.53 -187.73L10.96 -187.08L9.61 -186.04L8.57 -184.69L7.92 -183.11L7.7 -181.42L7.92 -179.73L8.57 -178.16L9.61 -176.81L10.96 -175.77L12.53 -175.12L14.22 -174.9ZM15.04 -168.37L16.67 -168.37L16.67 -172.72L3.62 -172.72L3.62 -168.37L5.25 -168.37L5.25 -148.94L15.04 -148.94ZM-35.26 -143.06L-33.69 -143.71L-32.34 -144.75L-31.3 -146.1L-30.65 -147.67L-30.6 -148L-28.52 -147.73L-26.41 -148.01L-24.44 -148.82L-22.75 -150.12L-21.45 -151.81L-20.64 -153.78L-20.55 -154.44L-19.33 -153.94L-17.64 -153.71L-15.95 -153.94L-14.38 -154.59L-13.03 -155.63L-11.99 -156.98L-11.34 -158.55L-11.11 -160.24L-11.34 -161.93L-11.99 -163.51L-13.03 -164.86L-14.38 -165.9L-15.95 -166.55L-17.64 -166.77L-19.33 -166.55L-20.91 -165.9L-22.26 -164.86L-23.29 -163.51L-23.74 -162.42L-24.44 -162.96L-26.41 -163.77L-28.52 -164.05L-30.63 -163.77L-32.6 -162.96L-34.29 -161.66L-35.59 -159.97L-36.4 -158L-36.68 -155.85L-36.95 -155.89L-38.64 -155.67L-40.22 -155.01L-41.57 -153.98L-42.61 -152.63L-43.26 -151.05L-43.48 -149.36L-43.26 -147.67L-42.61 -146.1L-41.57 -144.75L-40.22 -143.71L-38.64 -143.06L-36.95 -142.83ZM-67.9 -143.06L-66.33 -143.71L-64.98 -144.75L-63.94 -146.1L-63.29 -147.67L-63.24 -148L-61.16 -147.73L-59.05 -148.01L-57.08 -148.82L-55.39 -150.12L-54.09 -151.81L-53.28 -153.78L-53.19 -154.44L-51.97 -153.94L-50.28 -153.71L-48.59 -153.94L-47.02 -154.59L-45.66 -155.63L-44.63 -156.98L-43.98 -158.55L-43.75 -160.24L-43.98 -161.93L-44.63 -163.51L-45.66 -164.86L-47.02 -165.9L-48.59 -166.55L-50.28 -166.77L-51.97 -166.55L-53.55 -165.9L-54.9 -164.86L-55.93 -163.51L-56.38 -162.42L-57.08 -162.96L-59.05 -163.77L-61.16 -164.05L-63.27 -163.77L-65.24 -162.96L-66.93 -161.66L-68.23 -159.97L-69.04 -158L-69.32 -155.85L-69.59 -155.89L-71.28 -155.67L-72.86 -155.01L-74.21 -153.98L-75.25 -152.63L-75.9 -151.05L-76.12 -149.36L-75.9 -147.67L-75.25 -146.1L-74.21 -144.75L-72.86 -143.71L-71.28 -143.06L-69.59 -142.83ZM-68.78 -136.31L-67.14 -136.31L-67.14 -140.66L-80.2 -140.66L-80.2 -136.31L-78.57 -136.31L-78.57 -116.88L-68.78 -116.88ZM-36.14 -136.31L-34.51 -136.31L-34.51 -140.66L-47.56 -140.66L-47.56 -136.31L-45.93 -136.31L-45.93 -116.88L-36.14 -116.88ZM-19.84 10.63L-20.81 10.23L-22.19 9.47L-23.24 8.62L-23.95 7.65L-24.23 6.45L-16.15 -8.11L-16.15 -36.2L-97.75 -36.2L-97.75 14.52L-19.84 14.52ZM21.5 -13.73L17.54 -13.73L18.37 -17.84L11.27 -17.84L11.27 -12.52L20.09 3.35L21.5 3.35ZM-98.45 -17.75L-108.56 -17.75L-108.56 3.44L-98.45 3.44ZM79.29 -13.73L22.2 -13.73L22.2 16.3L79.29 16.3ZM1.13 33.81L3.42 33.65L4.16 33.57L4.16 13.16L1.72 13.29L-1.22 13.35L-4.15 13.29L-7.03 13.14L-9.82 12.88L-12.46 12.52L-14.92 12.07L-17.15 11.54L-19.14 10.91L-19.14 27.77L-18.98 28.56L-18.53 29.34L-17.77 30.1L-16.74 30.81L-15.44 31.48L-13.89 32.08L-12.13 32.6L-10.18 33.05L-8.07 33.4L-5.85 33.65L-3.55 33.81L-1.22 33.86Z"/>
  <path data-role="wall-shade" fill="#b7ab94" d="M19.25 -175.57L16.07 -173.42L17.37 -173.42L17.37 -167.67L15.74 -167.67L15.74 -148.94L19.25 -148.94ZM-31.92 -143.51L-35.1 -141.36L-33.8 -141.36L-33.8 -135.61L-35.44 -135.61L-35.44 -116.88L-31.92 -116.88ZM-64.56 -143.51L-67.74 -141.36L-66.44 -141.36L-66.44 -135.61L-68.08 -135.61L-68.08 -116.88L-64.56 -116.88ZM44.49 -140.73L40.69 -116.73L48.15 -115.99L50.45 -115.92ZM98.02 -106.71L97.31 -110.58L96.78 -106.47ZM-7.77 -108.67L-8.64 -103.17L-6.87 -101.03L-6.75 -100.75L-6.89 -100.31L-7.31 -100.13L-7.72 -100.33L-8.87 -101.72L-9.92 -95.13L-4.52 -95.13ZM112.37 -13.99L112.37 -36.97L101.33 -97.14L96.11 -56.26L102.25 -30.68L102.25 -7.13ZM-14.89 -97.06L-15.14 -95.13L-14.54 -95.13ZM-1.63 -34.24L-0.8 -34.24L10.57 -13.78L10.57 -47.98L5.76 -47.98L5.76 -58.09L9.87 -58.09L3.73 -75.72L-2.79 -75.72L-2.79 -77.13L3.24 -77.13L-0.9 -89.02L-11.77 -36.2L-15.45 -36.2L-15.45 -9.37ZM101.55 1.22L101.55 -30.6L92.25 -69.32L83.7 -13.73L79.99 -13.73L79.99 15.83ZM5.64 33.4L7.75 33.05L9.7 32.6L11.46 32.08L13.01 31.48L14.31 30.81L15.34 30.1L16.1 29.34L16.55 28.56L16.71 27.77L16.7 10.92L14.72 11.54L12.49 12.07L10.03 12.52L7.39 12.88L4.16 13.16L4.16 33.57Z"/>
  <path data-role="wood" fill="#7D6448" d="M16.25 -57.38L6.46 -57.38L6.46 -48.68L16.25 -48.68Z"/>
  <path data-role="roof" fill="#9A7B58" d="M7.36 -100.93L6.94 -100.42L6.68 -100.24L6.23 -100.3L5.97 -100.67L6.09 -101.12L7.71 -103.08L8.44 -107.58L11.02 -107.07L12.87 -109.31L7.18 -116.19L7.05 -116.47L7.19 -116.91L7.61 -117.09L8.03 -116.89L13.59 -110.18L16.5 -113.7L16.61 -114.37L16.19 -113.86L15.93 -113.69L15.48 -113.74L15.22 -114.12L15.34 -114.56L16.96 -116.52L17.69 -121.04L20.22 -120.46L22.12 -122.75L16.43 -129.63L16.3 -129.92L16.44 -130.35L16.86 -130.54L17.27 -130.34L22.83 -123.62L28.39 -130.34L28.65 -130.51L29.1 -130.46L29.36 -130.08L29.24 -129.63L23.55 -122.75L26.67 -118.98L28.34 -118.59L38.24 -116.97L39.99 -116.8L44.97 -148.24L-24.05 -148.24L-24.96 -147.85L-31.12 -116.88L-20.63 -116.88L-20.34 -117L-20.08 -116.88L-8.7 -116.88L-8.56 -116.98L-8.1 -116.93L-8.07 -116.88L-6.47 -116.88L-7.49 -110.47L-3.8 -95.13L-2.3 -95.16L-2.29 -95.13L0.35 -95.13L-0.63 -90.36L3.65 -78.07ZM22.83 -121.89L21.42 -120.19L24.91 -119.38ZM67 -102.55L78.58 -103.53L90.13 -105.15L96.06 -106.32L97.07 -114.23L95.45 -116.19L95.33 -116.47L95.46 -116.91L95.88 -117.09L96.3 -116.89L97.26 -115.73L97.83 -120.19L87.88 -117.91L77.94 -116.27L67.99 -115.29L58.05 -114.97L48.1 -115.29L38.16 -116.27L28.21 -117.91L18.26 -120.19L17.38 -114.76L19.14 -116.89L19.4 -117.07L19.85 -117.01L20.11 -116.64L19.99 -116.19L17.03 -112.62L16.14 -107.09L17.16 -105.86L20.74 -105.15L32.29 -103.53L43.87 -102.55L55.44 -102.22ZM-7.29 -116.18L-7.94 -116.18L-7.96 -116.1L-13.66 -109.22L-9.24 -103.89ZM-9.33 -116.18L-19.41 -116.18L-14.37 -110.09ZM-45.79 -102.46L-35.38 -103.44L-24.96 -105.06L-17.35 -106.73L-17.26 -107.35L-16.62 -107.36L-15.08 -109.22L-20.78 -116.1L-20.81 -116.18L-87.05 -116.18L-87.07 -116.1L-92.76 -109.22L-89.73 -105.56L-87.46 -105.06L-77.04 -103.44L-66.63 -102.46L-56.21 -102.14ZM-88.44 -116.18L-93.46 -116.18L-94.44 -111.25L-93.48 -110.09ZM16.15 -111.55L14.3 -109.31L15.54 -107.81ZM-94.19 -109.22L-94.72 -109.86L-95.06 -108.18ZM15.31 -106.37L13.59 -108.45L12.24 -106.83L15.29 -106.23ZM-93.48 -108.36L-94.86 -106.68L-91.48 -105.94ZM-13.68 -107.53L-14.37 -108.36L-15.36 -107.16ZM-9.47 -102.44L-13.57 -107.39L-14.6 -99.34L-13.83 -95.13L-10.63 -95.13ZM30.47 -77.62L93.53 -77.62L92.53 -71.15L95.65 -58.18L101.86 -106.75L90.25 -104.46L78.64 -102.83L67.04 -101.85L55.44 -101.52L43.83 -101.85L32.23 -102.83L20.62 -104.46L9.02 -106.75L4.2 -77.13L13.53 -77.13L13.53 -75.72L11.65 -75.72L11.65 -58.09L16.95 -58.09L16.95 -47.98L11.27 -47.98L11.27 -18.54L18.51 -18.54ZM-98.45 -36.2L-102.46 -36.2L-87.22 -95.13L-15.84 -95.13L-14.37 -106.66L-24.83 -104.38L-35.29 -102.74L-45.75 -101.76L-56.21 -101.44L-66.67 -101.76L-77.13 -102.74L-87.59 -104.38L-98.05 -106.66L-112.37 -18.45L-98.45 -18.45ZM-0.51 -94.43L-86.67 -94.43L-101.55 -36.91L-12.34 -36.91ZM92.71 -76.92L31.05 -76.92L18.39 -14.43L83.1 -14.43ZM11.05 -75.72L4.47 -75.72L10.61 -58.09L11.05 -58.09ZM1.69 12.59L4.35 12.45L4.35 -23.52L-1.22 -33.55L-23.49 6.55L-23.3 7.35L-22.73 8.13L-21.8 8.88L-20.51 9.6L-18.89 10.26L-16.97 10.86L-14.78 11.39L-12.35 11.83L-9.74 12.18L-6.98 12.44L-4.12 12.59L-1.22 12.64Z"/>
  <path data-role="roof-shade" fill="#7a6348" d="M4.35 12.45L7.31 12.18L9.92 11.83L12.35 11.39L14.54 10.86L16.46 10.26L18.08 9.6L19.36 8.88L20.3 8.13L20.87 7.35L21.06 6.55L4.35 -23.52Z"/>
  <path data-role="ink" fill="#2F2A24" d="M18.55 -168.9L15.74 -162.86L15.74 -161.44L18.55 -167.48L18.55 -159.89L15.74 -153.85L15.74 -152.43L18.55 -158.47L18.55 -150.88L17.65 -148.94L15.74 -148.94L15.74 -167.67L17.37 -167.67L17.37 -173.42L17.32 -173.42L18.55 -174.25ZM12.72 -175.8L11.31 -176.38L10.11 -177.31L9.18 -178.51L8.6 -179.92L8.4 -181.42L8.6 -182.93L9.18 -184.34L10.11 -185.54L11.31 -186.46L12.72 -187.05L14.22 -187.25L15.32 -187.1L15.2 -187.95L15.46 -189.88L16.2 -191.68L17.38 -193.22L18.93 -194.4L20.73 -195.15L22.66 -195.41L24.58 -195.15L26.38 -194.41L27.73 -193.37L28.5 -195.22L29.42 -196.42L30.62 -197.34L32.03 -197.93L33.53 -198.13L35.04 -197.93L36.45 -197.34L37.65 -196.42L38.58 -195.22L39.16 -193.81L39.36 -192.3L39.16 -190.8L38.58 -189.39L37.65 -188.19L36.45 -187.26L35.04 -186.68L33.53 -186.48L32.03 -186.68L30.05 -187.5L29.86 -186.02L29.11 -184.22L27.93 -182.68L26.38 -181.5L24.58 -180.75L22.66 -180.5L19.97 -180.85L19.85 -179.92L19.26 -178.51L18.34 -177.31L17.14 -176.38L15.73 -175.8L14.22 -175.6ZM5.95 -148.94L5.95 -169.07L4.32 -169.07L4.32 -172.02L15.97 -172.02L15.97 -169.07L14.34 -169.07L14.34 -148.94ZM-38.46 -143.74L-39.87 -144.32L-41.07 -145.25L-41.99 -146.45L-42.58 -147.86L-42.77 -149.36L-42.58 -150.87L-41.99 -152.28L-41.07 -153.48L-39.87 -154.4L-38.46 -154.99L-36.95 -155.18L-35.86 -155.04L-35.98 -155.89L-35.72 -157.82L-34.98 -159.62L-33.79 -161.16L-32.25 -162.34L-30.45 -163.09L-28.52 -163.34L-26.59 -163.09L-24.79 -162.34L-23.45 -161.31L-22.68 -163.16L-21.76 -164.36L-20.55 -165.28L-19.15 -165.87L-17.64 -166.06L-16.14 -165.87L-14.73 -165.28L-13.52 -164.36L-12.6 -163.16L-12.02 -161.75L-11.82 -160.24L-12.02 -158.74L-12.6 -157.33L-13.52 -156.13L-14.73 -155.2L-16.14 -154.62L-17.64 -154.42L-19.15 -154.62L-21.13 -155.44L-21.32 -153.96L-22.07 -152.16L-23.25 -150.62L-24.79 -149.44L-26.59 -148.69L-28.52 -148.44L-31.2 -148.79L-31.33 -147.86L-31.91 -146.45L-32.84 -145.25L-34.04 -144.32L-35.45 -143.74L-36.95 -143.54ZM-71.1 -143.74L-72.51 -144.32L-73.71 -145.25L-74.63 -146.45L-75.22 -147.86L-75.42 -149.36L-75.22 -150.87L-74.63 -152.28L-73.71 -153.48L-72.51 -154.4L-71.1 -154.99L-69.59 -155.18L-68.5 -155.04L-68.61 -155.89L-68.36 -157.82L-67.61 -159.62L-66.43 -161.16L-64.89 -162.34L-63.09 -163.09L-61.16 -163.34L-59.23 -163.09L-57.43 -162.34L-56.09 -161.31L-55.32 -163.16L-54.4 -164.36L-53.19 -165.28L-51.79 -165.87L-50.28 -166.06L-48.77 -165.87L-47.37 -165.28L-46.16 -164.36L-45.24 -163.16L-44.66 -161.75L-44.46 -160.24L-44.66 -158.74L-45.24 -157.33L-46.16 -156.13L-47.37 -155.2L-48.77 -154.62L-50.28 -154.42L-51.79 -154.62L-53.77 -155.44L-53.96 -153.96L-54.71 -152.16L-55.89 -150.62L-57.43 -149.44L-59.23 -148.69L-61.16 -148.44L-63.84 -148.79L-63.97 -147.86L-64.55 -146.45L-65.48 -145.25L-66.68 -144.32L-68.09 -143.74L-69.59 -143.54ZM-31.22 -143.94L-31.83 -144.26L-30.69 -145.75L-30.07 -147.23L-28.52 -147.02L-26.23 -147.33L-25.73 -147.53L-31.22 -119.96ZM-97.05 13.82L-97.05 -36.2L-16.85 -36.2L-16.85 -6.85L-15.45 -9.37L-15.45 -35.01L-14.89 -36.2L-11.77 -36.2L0.35 -95.13L-2.29 -95.13L-2.3 -95.16L-3.8 -95.13L-7.49 -110.47L-8.31 -105.27L-7.89 -106.17L-6.69 -101.16L-6.82 -100.89L-6.87 -101.03L-8.64 -103.17L-6.47 -116.88L-8.07 -116.88L-8.1 -116.93L-8.56 -116.98L-8.7 -116.88L-20.08 -116.88L-20.34 -117L-20.63 -116.88L-30.41 -116.88L-24.3 -147.54L44.15 -147.54L39.3 -116.86L38.24 -116.97L28.34 -118.59L26.67 -118.98L23.55 -122.75L29.15 -129.52L41.3 -129.52L41.4 -130.12L29.33 -130.12L29.1 -130.46L28.65 -130.51L28.39 -130.34L28.21 -130.12L17.45 -130.12L17.95 -129.52L27.72 -129.52L22.83 -123.62L17.27 -130.34L16.86 -130.54L16.44 -130.35L16.37 -130.12L-27.77 -130.12L-27.89 -129.52L16.52 -129.52L22.12 -122.75L20.22 -120.46L17.69 -121.04L16.96 -116.52L15.34 -114.56L15.22 -114.12L15.48 -113.74L15.93 -113.69L16.19 -113.86L16.61 -114.37L16.5 -113.7L14.85 -111.7L12.32 -111.7L12.82 -111.1L14.35 -111.1L13.59 -110.18L8.03 -116.89L7.61 -117.09L7.19 -116.91L7.05 -116.47L7.18 -116.19L12.87 -109.31L11.02 -107.07L8.44 -107.58L7.71 -103.08L6.09 -101.12L5.97 -100.67L6.23 -100.3L6.68 -100.24L6.94 -100.42L7.36 -100.93L6.12 -93.28L-0.03 -93.28L-0.15 -92.68L6.02 -92.68L3.65 -78.07L-0.63 -90.36L-1.18 -87.68L-0.65 -86.17L-2.15 -82.97L-2.67 -80.42L-0.37 -85.36L1.14 -81.02L-0.67 -77.13L-2.79 -77.13L-2.79 -75.72L-1.32 -75.72L-5.46 -66.84L-5.99 -64.3L-0.66 -75.72L2.88 -75.72L-8.78 -50.72L-9.3 -48.18L3.22 -75.04L4.74 -70.7L-15.45 -27.42L-15.45 -26L5.02 -69.89L6.53 -65.54L-15.45 -18.41L-15.45 -16.99L6.82 -64.73L8.33 -60.38L7.26 -58.09L5.76 -58.09L5.76 -54.87L-15.45 -9.37L-11.4 -16.65L5.76 -53.45L5.76 -47.98L6.75 -47.98L-0.18 -33.12L0.18 -32.48L7.41 -47.98L9.87 -47.98L9.87 -45.66L2.1 -29.01L2.46 -28.36L9.87 -44.24L9.87 -36.65L4.39 -24.9L4.75 -24.25L9.87 -35.23L9.87 -27.64L6.67 -20.79L7.03 -20.14L9.87 -26.22L9.87 -18.63L8.96 -16.68L9.32 -16.03L9.87 -17.21L9.87 -15.04L11.27 -12.52L11.27 -17.84L18.37 -17.84L18.65 -19.24L11.27 -19.24L11.27 -41.11L23.08 -41.11L17.54 -13.73L21.5 -13.73L21.5 2.65L19.7 2.65L20.47 4.05L21.5 4.05L21.5 5.9L-0.8 -34.24L-1.63 -34.24L-24.23 6.45L-23.95 7.65L-23.24 8.62L-22.19 9.47L-20.81 10.23L-19.84 10.63L-19.84 13.82L-28.39 13.82L-28.39 -10.54L-36.2 1.1L-36.2 13.82L-36.9 13.82L-36.9 2.14L-44.41 13.35L-44.71 13.16L-44.71 13.82L-69.19 13.82L-69.19 -10.54L-77 1.1L-77 13.82L-77.7 13.82L-77.7 2.14L-85.22 13.35L-85.51 13.16L-85.51 13.82ZM-35.44 -116.88L-35.44 -135.61L-33.8 -135.61L-33.8 -141.36L-33.85 -141.36L-32.62 -142.19L-32.62 -136.84L-35.44 -130.8L-35.44 -129.38L-32.62 -135.42L-32.62 -127.83L-35.44 -121.79L-35.44 -120.37L-32.62 -126.41L-32.62 -118.82L-33.53 -116.88ZM-68.08 -116.88L-68.08 -135.61L-66.44 -135.61L-66.44 -141.36L-66.5 -141.36L-65.26 -142.19L-65.26 -136.84L-68.08 -130.8L-68.08 -129.38L-65.26 -135.42L-65.26 -127.83L-68.08 -121.79L-68.08 -120.37L-65.26 -126.41L-65.26 -118.82L-66.17 -116.88ZM-45.23 -116.88L-45.23 -137.01L-46.86 -137.01L-46.86 -139.96L-35.2 -139.96L-35.2 -137.01L-36.84 -137.01L-36.84 -116.88ZM-77.87 -116.88L-77.87 -137.01L-79.5 -137.01L-79.5 -139.96L-67.84 -139.96L-67.84 -137.01L-69.48 -137.01L-69.48 -116.88ZM43.79 -116.42L40.69 -116.73L44.2 -138.92L44.77 -136.55L43.34 -133.48L43 -131.33L45 -135.61L46.2 -130.6L41.19 -119.84L40.85 -117.69L46.43 -129.67L47.63 -124.66ZM47.81 -116.03L44.43 -116.36L47.86 -123.72L49.06 -118.71ZM97.83 -121.89L98.51 -121.07L96.83 -120.68ZM21.42 -120.19L22.83 -121.89L24.91 -119.38ZM18.84 -119.34L19.22 -119.26L18.72 -118.65ZM48.45 -115.98L49.29 -117.77L49.73 -115.94ZM-65.5 -116.88L-65.26 -117.4L-65.26 -116.88ZM-32.87 -116.88L-32.62 -117.4L-32.62 -116.88ZM-66.63 -102.46L-77.04 -103.44L-87.46 -105.06L-89.73 -105.56L-92.76 -109.22L-87.59 -115.48L-20.26 -115.48L-15.08 -109.22L-16.62 -107.36L-17.26 -107.35L-17.35 -106.73L-24.96 -105.06L-35.38 -103.44L-45.79 -102.46L-56.21 -102.14ZM-13.66 -109.22L-8.48 -115.48L-8.11 -115.48L-9.83 -104.61ZM-18.83 -115.48L-9.91 -115.48L-14.37 -110.09ZM96.78 -106.47L97.01 -108.3L97.07 -108L96.94 -107.72L96.78 -106.47L97.04 -106.52L97.25 -106.98L97.33 -106.57L98.7 -106.84L97.6 -112.87L97.68 -113.5L101.14 -109.31L99.6 -107.45L98.96 -107.44L98.88 -106.88ZM10.89 -111.7L-7.29 -111.7L-7.39 -111.1L11.39 -111.1ZM14.3 -109.31L15.78 -111.1L16.08 -111.1L15.54 -107.81ZM12.24 -106.83L13.59 -108.45L15.31 -106.37L15.29 -106.23ZM101.86 -108.45L102.56 -107.6L100.88 -107.27ZM-14.37 -108.36L-13.68 -107.53L-15.36 -107.16ZM-94.65 -106.64L-94.57 -107.05L-93.48 -108.36L-91.48 -105.94ZM-13.83 -95.13L-14.6 -99.34L-13.57 -107.39L-10.06 -103.16L-11.33 -95.13ZM9.59 -105.92L10 -105.84L9.47 -105.21ZM89.89 -53.96L93.41 -61.51L93.18 -62.45L90.21 -56.08L93.53 -77.62L30.47 -77.62L27.61 -63.49L11.65 -63.49L11.65 -75.72L13.53 -75.72L13.53 -77.13L4.91 -77.13L9.13 -103.06L11.23 -105.6L16.86 -104.49L20.23 -100.42L20.65 -100.22L21.07 -100.4L21.2 -100.84L21.08 -101.12L18.57 -104.16L20.5 -103.77L32.15 -102.13L43.79 -101.15L55.44 -100.82L67.08 -101.15L78.72 -102.13L90.37 -103.77L97.76 -105.23L94.36 -101.12L94.24 -100.67L94.5 -100.3L94.95 -100.24L95.21 -100.42L99.47 -105.57L101.04 -105.88L98.4 -85.27L6.24 -85.27L6.14 -84.67L98.33 -84.67L95.19 -60.1L92.53 -71.15L91.98 -67.45L94.61 -56.5L88.15 -42.64ZM-97.47 -105.82L-97.08 -105.73L-97.59 -105.12ZM-100.83 -85.18L-97.94 -102.97L-95.87 -105.47L-90.03 -104.19L-86.83 -100.33L-86.42 -100.13L-86 -100.31L-85.86 -100.75L-85.98 -101.03L-88.28 -103.81L-87.72 -103.69L-77.22 -102.05L-66.71 -101.06L-56.21 -100.74L-45.7 -101.06L-35.2 -102.05L-24.7 -103.69L-18.55 -105.03L-21.87 -101.03L-21.98 -100.59L-21.73 -100.21L-21.27 -100.16L-21.02 -100.33L-16.81 -105.41L-15.19 -105.77L-16.55 -95.13L-87.22 -95.13L-89.79 -85.18ZM-9.92 -95.13L-8.87 -101.72L-7.72 -100.33L-7.31 -100.13L-7.13 -100.2L-9.5 -95.13ZM-8.84 -95.13L-6.46 -100.22L-5.26 -95.21L-5.3 -95.13ZM-10.87 -98.06L-14.37 -98.06L-14.26 -97.46L-10.96 -97.46ZM-89.52 -80.62L-86.13 -93.73L-1.36 -93.73L-4.06 -80.62ZM-107.9 -41.62L-100.92 -84.58L-89.95 -84.58L-95.42 -63.4L-104.36 -63.4L-104.46 -62.8L-95.58 -62.8L-101.06 -41.62ZM-0.01 -77.13L1.43 -80.2L2.5 -77.13ZM-93.17 -66.51L-89.68 -80.02L-4.18 -80.02L-6.96 -66.51ZM28.71 -61.87L31.62 -76.22L91.89 -76.22L89.69 -61.87ZM8.73 -63.49L4.62 -75.3L4.69 -75.72L11.05 -75.72L11.05 -63.49ZM96.24 -55.7L104.84 -74.14L105.84 -68.69L97.45 -50.69ZM97.67 -49.75L106.03 -67.67L107.03 -62.22L98.88 -44.74ZM-100.65 -37.6L-96.98 -51.8L-9.99 -51.8L-9.87 -52.4L-96.82 -52.4L-93.33 -65.91L-7.09 -65.91L-12.91 -37.6ZM95.62 -63.49L94.37 -63.49L94.51 -62.89L95.54 -62.89ZM11.27 -41.71L11.27 -47.98L16.95 -47.98L16.95 -58.09L11.65 -58.09L11.65 -62.89L27.49 -62.89L23.2 -41.71ZM10.61 -58.09L8.94 -62.89L11.05 -62.89L11.05 -58.09ZM25.6 -46.52L28.59 -61.27L89.59 -61.27L87.33 -46.52ZM7.92 -58.09L8.61 -59.57L9.13 -58.09ZM7.16 -49.38L7.16 -56.69L15.55 -56.69L15.55 -49.38ZM87.82 -40.52L94.84 -55.56L96.04 -50.55L86.08 -29.2ZM25.48 -45.92L87.23 -45.92L84.97 -31.17L22.5 -31.17ZM-111.55 -19.15L-108 -41.02L-101.21 -41.02L-102.46 -36.2L-98.45 -36.2L-98.45 -19.15ZM-35.13 -33.41L-37.96 -33.41L-37.96 -23.51L-35.13 -23.51ZM-75.93 -33.41L-78.76 -33.41L-78.76 -23.51L-75.93 -23.51ZM-4.1 11.89L-6.93 11.74L-9.65 11.49L-12.24 11.14L-14.63 10.7L-16.79 10.18L-18.64 9.6L-20.2 8.97L-21.4 8.3L-22.22 7.64L-22.65 7.05L-22.75 6.65L-1.21 -32.09L8.18 11.36L7.22 11.49L4.5 11.74L1.67 11.89L-1.22 11.95ZM19.25 -15.13L22.37 -30.57L84.88 -30.57L82.5 -15.13ZM90.51 -27.98L88.11 -27.98L88.11 -19.6L90.51 -19.6ZM1.23 -23.64L10.87 10.94L11.46 10.84L1.99 -23.16L13.37 10.42L12.21 10.7L9.81 11.14L8.78 11.28ZM84.31 12.06L100.85 -23.41L100.85 -15.82L89.49 8.55L90.45 7.9L100.85 -14.4L100.85 -6.81L95.63 4.39L96.6 3.74L100.85 -5.39L100.85 0.85ZM13.96 10.28L2.84 -22.53L15.66 9.78L14.36 10.18ZM16.24 9.6L3.8 -21.72L17.7 9L18.23 8.71L4.93 -20.69L19.38 7.98L19.84 7.57L10.24 -11.49L20.32 6.65L20.22 7.05L19.79 7.64L18.97 8.3L17.77 8.97ZM90.39 -19L89.73 -19L79.99 1.88L79.99 3.3ZM-107.86 2.74L-107.86 -17.75L-98.45 -17.75L-98.45 -17.02L-100.41 -17.02L-100.41 -4.83L-98.45 -4.83L-98.45 2.74ZM22.9 15.6L22.9 -13.73L78.59 -13.73L78.59 15.6L75.22 15.6L75.22 2.7L74.95 1.02L74.18 -0.49L72.98 -1.7L71.46 -2.47L69.78 -2.74L68.1 -2.47L66.58 -1.7L65.38 -0.49L64.61 1.02L64.34 2.7L64.34 15.6ZM-36.9 0.88L-36.9 -12.53L-44.71 -12.53L-44.71 12.53ZM-77.7 0.88L-77.7 -12.53L-85.51 -12.53L-85.51 12.53ZM-69.48 -11.37L-69.19 -11.17L-69.19 -12.53L-77 -12.53L-77 -0.16ZM-28.68 -11.37L-28.39 -11.17L-28.39 -12.53L-36.2 -12.53L-36.2 -0.16ZM33.46 -7.34L29.98 -7.34L29.98 4.85L33.46 4.85ZM52.49 -7.34L49.01 -7.34L49.01 4.85L52.49 4.85ZM-1.07 23.49L-1.3 22.06L-1.96 20.77L-2.98 19.75L-4.27 19.09L-5.7 18.87L-7.13 19.09L-8.41 19.75L-9.44 20.77L-10.09 22.06L-10.32 23.49L-10.32 32.29L-11.95 31.92L-13.66 31.41L-15.15 30.84L-16.38 30.21L-17.32 29.56L-17.97 28.91L-18.32 28.31L-18.44 27.7L-18.44 11.13L-17.15 11.54L-14.92 12.07L-12.46 12.52L-9.82 12.88L-7.03 13.14L-4.15 13.29L-1.22 13.35L1.72 13.29L4.6 13.14L7.45 12.87L7.45 32.39L5.54 32.7L3.36 32.96L1.11 33.11L-1.07 33.16ZM14.61 29.76L14.61 11.56L14.01 11.71L14.01 30.17ZM21.1 -179.29L22.66 -179.09L24.95 -179.39L27.09 -180.27L28.92 -181.68L30.33 -183.52L31.16 -185.52L31.66 -185.31L33.53 -185.07L35.41 -185.31L37.15 -186.04L38.65 -187.19L39.8 -188.69L40.52 -190.43L40.77 -192.3L40.52 -194.18L39.8 -195.92L38.65 -197.42L37.15 -198.57L35.41 -199.29L33.53 -199.54L31.66 -199.29L29.92 -198.57L28.42 -197.42L27.27 -195.92L27.13 -195.59L24.95 -196.51L22.66 -196.82L20.36 -196.51L18.22 -195.63L16.39 -194.22L14.98 -192.38L14.09 -190.25L13.88 -188.61L12.35 -188.41L10.61 -187.69L9.11 -186.54L7.96 -185.04L7.24 -183.29L6.99 -181.42L7.24 -179.55L7.96 -177.81L9.11 -176.31L10.61 -175.16L12.35 -174.44L14.22 -174.19L16.1 -174.44L16.68 -174.68L14.82 -173.42L2.92 -173.42L2.92 -167.67L4.55 -167.67L4.55 -148.94L-23.14 -148.94L-22.25 -149.62L-20.84 -151.46L-20.01 -153.46L-19.51 -153.25L-17.64 -153.01L-15.77 -153.25L-14.02 -153.98L-12.53 -155.13L-11.38 -156.63L-10.65 -158.37L-10.41 -160.24L-10.65 -162.11L-11.38 -163.86L-12.53 -165.36L-14.02 -166.51L-15.77 -167.23L-17.64 -167.48L-19.51 -167.23L-21.26 -166.51L-22.76 -165.36L-23.91 -163.86L-24.04 -163.53L-26.23 -164.45L-28.52 -164.76L-30.82 -164.45L-32.95 -163.57L-34.79 -162.16L-36.2 -160.32L-37.09 -158.19L-37.3 -156.55L-38.83 -156.35L-40.57 -155.63L-42.07 -154.48L-43.22 -152.98L-43.94 -151.23L-44.19 -149.36L-43.94 -147.49L-43.22 -145.75L-42.07 -144.25L-40.57 -143.1L-38.83 -142.37L-36.95 -142.13L-35.08 -142.37L-34.49 -142.62L-36.35 -141.36L-48.26 -141.36L-48.26 -135.61L-46.63 -135.61L-46.63 -116.88L-63.86 -116.88L-63.86 -143.94L-64.47 -144.26L-63.33 -145.75L-62.71 -147.23L-61.16 -147.02L-58.87 -147.33L-56.73 -148.21L-54.89 -149.62L-53.48 -151.46L-52.65 -153.46L-52.15 -153.25L-50.28 -153.01L-48.41 -153.25L-46.66 -153.98L-45.17 -155.13L-44.02 -156.63L-43.29 -158.37L-43.05 -160.24L-43.29 -162.11L-44.02 -163.86L-45.17 -165.36L-46.66 -166.51L-48.41 -167.23L-50.28 -167.48L-52.15 -167.23L-53.9 -166.51L-55.4 -165.36L-56.55 -163.86L-56.68 -163.53L-58.87 -164.45L-61.16 -164.76L-63.46 -164.45L-65.59 -163.57L-67.43 -162.16L-68.84 -160.32L-69.72 -158.19L-69.94 -156.55L-71.47 -156.35L-73.21 -155.63L-74.71 -154.48L-75.86 -152.98L-76.58 -151.23L-76.83 -149.36L-76.58 -147.49L-75.86 -145.75L-74.71 -144.25L-73.21 -143.1L-71.47 -142.37L-69.59 -142.13L-67.72 -142.37L-67.13 -142.62L-68.99 -141.36L-80.9 -141.36L-80.9 -135.61L-79.27 -135.61L-79.27 -116.88L-87.18 -116.88L-87.21 -116.93L-87.66 -116.98L-87.81 -116.88L-94.04 -116.88L-95.02 -111.95L-93.87 -110.56L-92.89 -115.48L-89.02 -115.48L-93.48 -110.09L-99.04 -116.81L-99.45 -117L-99.87 -116.82L-100.01 -116.39L-99.89 -116.1L-95.3 -110.56L-95.99 -107.05L-96.07 -106.95L-98.62 -107.5L-99.35 -102.99L-100.97 -101.03L-101.09 -100.59L-100.83 -100.21L-100.38 -100.16L-100.13 -100.33L-99.7 -100.84L-113.19 -17.75L-109.26 -17.75L-109.26 4.14L-98.45 4.14L-98.45 15.22L-19.84 15.22L-19.84 27.83L-19.65 28.81L-19.09 29.78L-18.22 30.64L-17.1 31.42L-15.72 32.12L-14.12 32.74L-12.3 33.28L-10.31 33.73L-8.17 34.09L-5.92 34.35L-3.58 34.51L-1.22 34.56L1.16 34.51L3.49 34.35L5.74 34.09L7.88 33.73L9.87 33.28L11.69 32.74L13.29 32.12L14.67 31.42L15.79 30.64L16.66 29.78L17.22 28.81L17.41 27.83L17.41 10.63L16.7 10.92L15.53 11.28L15.53 28.92L14.89 29.56L13.95 30.21L13.59 30.39L13.59 11.81L12.99 11.95L12.99 30.7L12.4 30.96L12.4 12.09L11.8 12.2L11.8 31.19L11.08 31.46L11.08 12.33L10.48 12.44L10.48 31.64L9.62 31.89L9.62 12.58L9.02 12.66L9.02 32.04L8.05 32.26L8.05 12.79L10.03 12.52L12.49 12.07L14.86 11.49L14.86 29.58L15.46 28.99L15.46 11.3L16.7 10.92L18.38 10.23L19.76 9.47L20.81 8.62L21.5 7.67L21.5 17L79.12 17L79.34 17.12L79.51 17L79.99 17L79.99 -13.73L83.07 -13.73L79.99 -7.13L79.99 -5.71L87.51 -21.84L87.51 -23.26L84.01 -15.75L85.75 -27.08L96.26 -49.61L97.47 -44.61L89.99 -28.58L90.66 -28.58L97.69 -43.67L98.9 -38.66L91.11 -21.96L91.11 -20.54L99.12 -37.72L100.33 -32.71L79.99 10.89L79.99 12.31L100.55 -31.78L100.85 -30.52L100.85 -24.84L83.34 12.71L79.99 14.98L79.99 16.68L102.25 1.59L102.25 -30.68L99.1 -43.81L107.21 -61.2L108.21 -55.76L100.3 -38.8L100.53 -37.86L108.4 -54.74L109.4 -49.29L101.73 -32.85L101.96 -31.91L109.58 -48.27L110.58 -42.82L102.25 -24.96L102.25 -23.54L110.77 -41.8L111.67 -36.91L111.67 -36.14L102.25 -15.95L102.25 -14.53L111.67 -34.72L111.67 -27.13L102.97 -8.46L103.93 -9.12L111.67 -25.71L111.67 -18.12L109.11 -12.62L110.08 -13.28L111.67 -16.7L111.67 -14.36L102.25 -7.98L102.25 -6.29L113.07 -13.62L113.07 -37.03L101.63 -99.43L101.04 -94.85L101.09 -94.56L100.97 -94.28L100.72 -92.32L101.28 -93.53L102.28 -88.09L99.38 -81.87L99.13 -79.91L102.47 -87.07L103.47 -81.62L97.79 -69.45L97.54 -67.5L103.65 -80.6L104.65 -75.16L96.2 -57.04L102.66 -107.48L108.5 -100.42L108.92 -100.22L109.34 -100.4L109.47 -100.84L109.35 -101.12L102.57 -109.31L108.26 -116.19L108.38 -116.64L108.12 -117.01L107.67 -117.07L107.42 -116.89L101.86 -110.18L96.3 -116.89L95.88 -117.09L95.46 -116.91L95.33 -116.47L95.45 -116.19L96.46 -114.97L95.33 -106.18L90.13 -105.15L78.58 -103.53L67 -102.55L55.44 -102.22L43.87 -102.55L32.29 -103.53L20.74 -105.15L17.16 -105.86L16.73 -106.38L17.91 -113.68L19.99 -116.19L20.11 -116.64L19.85 -117.01L19.4 -117.07L19.14 -116.89L18.26 -115.83L18.37 -116.5L20.42 -118.98L26.38 -117.61L29.48 -113.86L29.89 -113.66L30.32 -113.84L30.45 -114.28L30.33 -114.56L28.14 -117.21L38.06 -115.58L48.05 -114.59L58.05 -114.27L68.04 -114.59L78.03 -115.58L88.02 -117.22L93.59 -118.5L90.33 -114.56L90.21 -114.12L90.47 -113.74L90.93 -113.69L91.18 -113.86L95.36 -118.91L97.01 -119.29L96.65 -116.47L97.87 -114.99L98.63 -120.93L104.48 -113.86L104.78 -113.71L105.38 -114.43L105.32 -114.56L98.54 -122.75L104.24 -129.63L104.35 -130.08L104.1 -130.46L103.64 -130.51L103.39 -130.34L97.83 -123.62L92.27 -130.34L91.86 -130.54L91.44 -130.35L91.3 -129.92L91.42 -129.63L97.11 -122.75L95.57 -120.89L94.94 -120.88L94.84 -120.22L87.75 -118.59L77.85 -116.97L67.94 -115.99L58.05 -115.67L51.18 -115.89L44.78 -142.53L45.79 -148.94L19.95 -148.94L19.95 -176L19.35 -176.32L20.49 -177.81ZM18.55 -149.46L18.55 -148.94L18.31 -148.94Z"/>
</svg>
